<svg width="24" height="24" viewBox="0 0 24 24" fill="none" xmlns="http://www.w3.org/2000/svg">
<g clip-path="url(#clip0_2003_366)">
<path d="M2 3H22V14H2V3Z" stroke="#08AC34" stroke-width="2" stroke-linejoin="round"/>
<path d="M22 14V18H2V14" stroke="#08AC34" stroke-width="2" stroke-linecap="round" stroke-linejoin="round"/>
<path d="M6.54545 9H5.45455C5.20351 9 5 9.20351 5 9.45455V10.5455C5 10.7965 5.20351 11 5.45455 11H6.54545C6.79649 11 7 10.7965 7 10.5455V9.45455C7 9.20351 6.79649 9 6.54545 9Z" fill="#08AC34"/>
<path d="M6.54545 6H5.45455C5.20351 6 5 6.20351 5 6.45455V7.54545C5 7.79649 5.20351 8 5.45455 8H6.54545C6.79649 8 7 7.79649 7 7.54545V6.45455C7 6.20351 6.79649 6 6.54545 6Z" fill="#08AC34"/>
<path d="M10.5455 9H9.45455C9.20351 9 9 9.20351 9 9.45455V10.5455C9 10.7965 9.20351 11 9.45455 11H10.5455C10.7965 11 11 10.7965 11 10.5455V9.45455C11 9.20351 10.7965 9 10.5455 9Z" fill="#08AC34"/>
<path d="M10.5455 6H9.45455C9.20351 6 9 6.20351 9 6.45455V7.54545C9 7.79649 9.20351 8 9.45455 8H10.5455C10.7965 8 11 7.79649 11 7.54545V6.45455C11 6.20351 10.7965 6 10.5455 6Z" fill="#08AC34"/>
<path d="M14.5455 9H13.4545C13.2035 9 13 9.20351 13 9.45455V10.5455C13 10.7965 13.2035 11 13.4545 11H14.5455C14.7965 11 15 10.7965 15 10.5455V9.45455C15 9.20351 14.7965 9 14.5455 9Z" fill="#08AC34"/>
<path d="M14.5455 6H13.4545C13.2035 6 13 6.20351 13 6.45455V7.54545C13 7.79649 13.2035 8 13.4545 8H14.5455C14.7965 8 15 7.79649 15 7.54545V6.45455C15 6.20351 14.7965 6 14.5455 6Z" fill="#08AC34"/>
<path d="M18.5455 6H17.4545C17.2035 6 17 6.20351 17 6.45455V7.54545C17 7.79649 17.2035 8 17.4545 8H18.5455C18.7965 8 19 7.79649 19 7.54545V6.45455C19 6.20351 18.7965 6 18.5455 6Z" fill="#08AC34"/>
<path d="M10.4231 18L8 21H16L13.5769 18" stroke="#08AC34" stroke-width="2" stroke-linecap="round" stroke-linejoin="round"/>
</g>
<defs>
<clipPath id="clip0_2003_366">
<rect width="24" height="24" fill="white"/>
</clipPath>
</defs>
</svg>
