<svg width="28" height="20" viewBox="0 0 28 20" fill="none" xmlns="http://www.w3.org/2000/svg">
<g clip-path="url(#clip0_371_1419)">
<rect width="28" height="20" rx="3" fill="#1A47B8"/>
<path fill-rule="evenodd" clip-rule="evenodd" d="M2.97863 0H0V3.33333L25.0052 20L28 20V16.6667L2.97863 0Z" fill="white"/>
<path d="M0.993465 0L28 18.0472V20H27.0298L0 1.93408V0H0.993465Z" fill="#F93939"/>
<path fill-rule="evenodd" clip-rule="evenodd" d="M25.3335 0H28.0001V3.33333C28.0001 3.33333 10.6799 14.4374 2.66679 20H0.00012207V16.6667L25.3335 0Z" fill="white"/>
<path d="M28 0H27.0957L0 18.0628V20H0.993465L28 1.94868V0Z" fill="#F93939"/>
<path fill-rule="evenodd" clip-rule="evenodd" d="M10.1828 0H17.8405V6.16909H28V13.8268H17.8405V20H10.1828V13.8268H0V6.16909H10.1828V0Z" fill="white"/>
<path fill-rule="evenodd" clip-rule="evenodd" d="M11.7895 0H16.2105V7.69231H28V12.3077H16.2105V20H11.7895V12.3077H0V7.69231H11.7895V0Z" fill="#F93939"/>
</g>
<defs>
<clipPath id="clip0_371_1419">
<rect width="28" height="20" rx="3" fill="white"/>
</clipPath>
</defs>
</svg>
