<svg width="30" height="30" viewBox="0 0 30 30" fill="none" xmlns="http://www.w3.org/2000/svg">
<path d="M29.9979 15.0005C29.9979 22.5765 24.3824 28.8396 17.0873 29.856C16.4052 29.9506 15.7073 30 14.9989 30C14.1813 30 13.3783 29.9348 12.5963 29.8087C5.45474 28.6589 0 22.4661 0 15.0005C0 6.71618 6.71595 0 15 0C23.2841 0 30 6.71618 30 15.0005H29.9979Z" fill="#08AC34"/>
<path d="M17.0873 12.0452V15.3129H21.1295L20.4894 19.7146H17.0873V29.8562C16.4052 29.9508 15.7073 30.0002 14.9989 30.0002C14.1813 30.0002 13.3783 29.935 12.5963 29.8089V19.7146H8.86841V15.3129H12.5963V11.3147C12.5963 8.83422 14.6069 6.82251 17.0884 6.82251V6.82461C17.0957 6.82461 17.102 6.82251 17.1094 6.82251H21.1305V10.6294H18.503C17.7221 10.6294 17.0884 11.2632 17.0884 12.0441L17.0873 12.0452Z" fill="black"/>
</svg>
