<svg width="50" height="50" viewBox="0 0 50 50" fill="none" xmlns="http://www.w3.org/2000/svg">
<path d="M49.9965 25.0009C49.9965 37.6274 40.6373 48.0661 28.4788 49.76C27.342 49.9177 26.1789 50 24.9982 50C23.6354 50 22.2972 49.8914 20.9939 49.6812C9.09123 47.7648 0 37.4435 0 25.0009C0 11.1936 11.1932 0 25 0C38.8068 0 50 11.1936 50 25.0009H49.9965Z" fill="#08AC34"/>
<path d="M28.4794 20.075V25.5212H35.2164L34.1496 32.8575H28.4794V49.7601C27.3426 49.9177 26.1794 50.0001 24.9988 50.0001C23.636 50.0001 22.2977 49.8915 20.9945 49.6812V32.8575H14.7812V25.5212H20.9945V18.8576C20.9945 14.7235 24.3454 11.3706 28.4812 11.3706V11.3741C28.4934 11.3741 28.5039 11.3706 28.5162 11.3706H35.2181V17.7154H30.8389C29.5374 17.7154 28.4812 18.7717 28.4812 20.0733L28.4794 20.075Z" fill="#EDEAEB"/>
</svg>
