<svg width="30" height="30" viewBox="0 0 30 30" fill="none" xmlns="http://www.w3.org/2000/svg">
<path d="M15.0342 0H14.9658C6.70044 0 0 6.70044 0 14.9658V15.0342C0 23.2996 6.70044 30 14.9658 30H15.0342C23.2996 30 30 23.2996 30 15.0342V14.9658C30 6.70044 23.2996 0 15.0342 0Z" fill="#08AC34"/>
<path d="M19.642 6.10352H10.3591C7.79458 6.10352 5.70825 8.18984 5.70825 10.7544V19.2468C5.70825 21.8114 7.79458 23.8977 10.3591 23.8977H19.642C22.2065 23.8977 24.2928 21.8114 24.2928 19.2468V10.7544C24.2928 8.18984 22.2065 6.10352 19.642 6.10352ZM7.34894 10.7544C7.34894 9.09479 8.69953 7.7442 10.3591 7.7442H19.642C21.3016 7.7442 22.6522 9.09479 22.6522 10.7544V19.2468C22.6522 20.9064 21.3016 22.257 19.642 22.257H10.3591C8.69953 22.257 7.34894 20.9064 7.34894 19.2468V10.7544Z" fill="black"/>
<path d="M15.0006 19.3258C17.3854 19.3258 19.3267 17.3856 19.3267 14.9997C19.3267 12.6138 17.3865 10.6736 15.0006 10.6736C12.6147 10.6736 10.6745 12.6138 10.6745 14.9997C10.6745 17.3856 12.6147 19.3258 15.0006 19.3258ZM15.0006 12.3153C16.4815 12.3153 17.686 13.5198 17.686 15.0007C17.686 16.4817 16.4815 17.6862 15.0006 17.6862C13.5197 17.6862 12.3152 16.4817 12.3152 15.0007C12.3152 13.5198 13.5197 12.3153 15.0006 12.3153Z" fill="black"/>
<path d="M19.7271 11.3722C20.3693 11.3722 20.8927 10.8499 20.8927 10.2066C20.8927 9.56339 20.3703 9.04102 19.7271 9.04102C19.0839 9.04102 18.5615 9.56339 18.5615 10.2066C18.5615 10.8499 19.0839 11.3722 19.7271 11.3722Z" fill="black"/>
</svg>
