<svg width="50" height="50" viewBox="0 0 50 50" fill="none" xmlns="http://www.w3.org/2000/svg">
<path d="M25.0569 0H24.9431C11.1674 0 0 11.1674 0 24.9431V25.0569C0 38.8326 11.1674 50 24.9431 50H25.0569C38.8326 50 50 38.8326 50 25.0569V24.9431C50 11.1674 38.8326 0 25.0569 0Z" fill="#08AC34"/>
<path d="M32.7365 10.1729H17.2651C12.9909 10.1729 9.51367 13.6501 9.51367 17.9243V32.0784C9.51367 36.3526 12.9909 39.8299 17.2651 39.8299H32.7365C37.0108 39.8299 40.488 36.3526 40.488 32.0784V17.9243C40.488 13.6501 37.0108 10.1729 32.7365 10.1729ZM12.2481 17.9243C12.2481 15.1583 14.4991 12.9073 17.2651 12.9073H32.7365C35.5025 12.9073 37.7535 15.1583 37.7535 17.9243V32.0784C37.7535 34.8444 35.5025 37.0954 32.7365 37.0954H17.2651C14.4991 37.0954 12.2481 34.8444 12.2481 32.0784V17.9243Z" fill="#EDEAEB"/>
<path d="M25.0012 32.2094C28.9759 32.2094 32.2114 28.9757 32.2114 24.9992C32.2114 21.0228 28.9777 17.7891 25.0012 17.7891C21.0247 17.7891 17.791 21.0228 17.791 24.9992C17.791 28.9757 21.0247 32.2094 25.0012 32.2094ZM25.0012 20.5253C27.4694 20.5253 29.4769 22.5328 29.4769 25.001C29.4769 27.4692 27.4694 29.4767 25.0012 29.4767C22.533 29.4767 20.5255 27.4692 20.5255 25.001C20.5255 22.5328 22.533 20.5253 25.0012 20.5253Z" fill="#EDEAEB"/>
<path d="M32.8782 18.9542C33.9485 18.9542 34.8209 18.0836 34.8209 17.0115C34.8209 15.9395 33.9503 15.0688 32.8782 15.0688C31.8062 15.0688 30.9355 15.9395 30.9355 17.0115C30.9355 18.0836 31.8062 18.9542 32.8782 18.9542Z" fill="#EDEAEB"/>
</svg>
