<svg width="30" height="30" viewBox="0 0 30 30" fill="none" xmlns="http://www.w3.org/2000/svg">
<rect width="30" height="30" rx="15" fill="#08AC34"/>
<path d="M11.3134 10.3336C11.3132 10.6873 11.1726 11.0263 10.9224 11.2762C10.6722 11.5262 10.333 11.6665 9.9794 11.6663C9.62578 11.6661 9.28671 11.5255 9.03678 11.2753C8.78686 11.0251 8.64655 10.6859 8.64673 10.3323C8.64691 9.97867 8.78755 9.63961 9.03773 9.38968C9.2879 9.13976 9.62711 8.99945 9.98073 8.99963C10.3343 8.99981 10.6734 9.14045 10.9233 9.39063C11.1733 9.6408 11.3136 9.98001 11.3134 10.3336ZM11.3534 12.6536H8.68673V21.0003H11.3534V12.6536ZM15.5668 12.6536H12.9134V21.0003H15.5401V16.6203C15.5401 14.1803 18.7201 13.9536 18.7201 16.6203V21.0003H21.3534V15.7136C21.3534 11.6003 16.6468 11.7536 15.5401 13.7736L15.5668 12.6536Z" fill="black"/>
</svg>
