<svg width="50" height="50" viewBox="0 0 50 50" fill="none" xmlns="http://www.w3.org/2000/svg">
<rect width="50" height="50" rx="25" fill="#08AC34"/>
<path d="M16.8762 14.5013C16.8758 15.2969 16.5659 16.0598 16.0146 16.6221C15.4633 17.1844 14.7159 17.5 13.9366 17.4997C13.1574 17.4992 12.4102 17.1828 11.8595 16.62C11.3088 16.0571 10.9996 15.2939 11 14.4983C11.0004 13.7027 11.3103 12.9399 11.8616 12.3776C12.4129 11.8153 13.1603 11.4996 13.9396 11.5C14.7188 11.5004 15.466 11.8168 16.0167 12.3797C16.5674 12.9425 16.8766 13.7057 16.8762 14.5013ZM16.9643 19.721H11.0881V38.5H16.9643V19.721ZM26.2488 19.721H20.4018V38.5H26.19V28.6456C26.19 23.1559 33.1973 22.6459 33.1973 28.6456V38.5H39V26.6056C39 17.3512 28.6287 17.6961 26.19 22.2409L26.2488 19.721Z" fill="#EDEAEB"/>
</svg>
