<svg width="112" height="40" viewBox="0 0 112 40" fill="none" xmlns="http://www.w3.org/2000/svg">
<path d="M51.92 31V7H55.248V31H51.92ZM65.8975 31.416C64.4255 31.416 63.0815 31.0373 61.8655 30.28C60.6602 29.5227 59.6948 28.5093 58.9695 27.24C58.2548 25.96 57.8975 24.5467 57.8975 23C57.8975 21.8267 58.1055 20.7333 58.5215 19.72C58.9375 18.696 59.5082 17.8 60.2335 17.032C60.9695 16.2533 61.8228 15.6453 62.7935 15.208C63.7642 14.7707 64.7988 14.552 65.8975 14.552C67.3695 14.552 68.7082 14.9307 69.9135 15.688C71.1295 16.4453 72.0948 17.464 72.8095 18.744C73.5348 20.024 73.8975 21.4427 73.8975 23C73.8975 24.1627 73.6895 25.2507 73.2735 26.264C72.8575 27.2773 72.2815 28.1733 71.5455 28.952C70.8202 29.72 69.9722 30.3227 69.0015 30.76C68.0415 31.1973 67.0068 31.416 65.8975 31.416ZM65.8975 28.088C66.7828 28.088 67.5775 27.8533 68.2815 27.384C68.9855 26.9147 69.5402 26.296 69.9455 25.528C70.3615 24.7493 70.5695 23.9067 70.5695 23C70.5695 22.072 70.3562 21.2187 69.9295 20.44C69.5135 19.6613 68.9535 19.0427 68.2495 18.584C67.5455 18.1147 66.7615 17.88 65.8975 17.88C65.0228 17.88 64.2282 18.1147 63.5135 18.584C62.8095 19.0533 62.2495 19.6773 61.8335 20.456C61.4282 21.2347 61.2255 22.0827 61.2255 23C61.2255 23.9493 61.4388 24.808 61.8655 25.576C62.2922 26.344 62.8575 26.9573 63.5615 27.416C64.2762 27.864 65.0548 28.088 65.8975 28.088ZM88.6273 15H91.9553V31.416C91.9553 32.5147 91.7206 33.528 91.2513 34.456C90.7926 35.384 90.1686 36.184 89.3793 36.856C88.5899 37.5387 87.6833 38.0667 86.6593 38.44C85.6459 38.8133 84.5846 39 83.4753 39C82.3553 39 81.2779 38.76 80.2433 38.28C79.2086 37.8107 78.2966 37.1707 77.5073 36.36C76.7286 35.5493 76.1473 34.632 75.7633 33.608L78.8193 32.232C79.0326 32.8933 79.3739 33.48 79.8433 33.992C80.3233 34.504 80.8779 34.9093 81.5073 35.208C82.1473 35.5067 82.8033 35.656 83.4753 35.656C84.1366 35.656 84.7713 35.5493 85.3793 35.336C85.9979 35.1333 86.5473 34.8453 87.0273 34.472C87.5179 34.0987 87.9073 33.6507 88.1953 33.128C88.4833 32.6053 88.6273 32.0347 88.6273 31.416V28.712C88.1046 29.5227 87.4326 30.1787 86.6113 30.68C85.7899 31.1707 84.8353 31.416 83.7473 31.416C82.6166 31.416 81.5499 31.1973 80.5473 30.76C79.5446 30.3227 78.6646 29.72 77.9073 28.952C77.1499 28.1733 76.5579 27.2773 76.1313 26.264C75.7046 25.2507 75.4913 24.1627 75.4913 23C75.4913 21.8373 75.7046 20.7493 76.1313 19.736C76.5579 18.712 77.1499 17.816 77.9073 17.048C78.6646 16.2693 79.5446 15.6613 80.5473 15.224C81.5499 14.7867 82.6166 14.568 83.7473 14.568C84.8353 14.568 85.7899 14.8187 86.6113 15.32C87.4326 15.8107 88.1046 16.4667 88.6273 17.288V15ZM83.7793 28.2C84.7073 28.2 85.5179 27.9653 86.2113 27.496C86.9046 27.016 87.4433 26.3813 87.8273 25.592C88.2113 24.8027 88.4033 23.9387 88.4033 23C88.4033 22.04 88.2059 21.1707 87.8113 20.392C87.4273 19.6027 86.8886 18.9733 86.1953 18.504C85.5019 18.024 84.6966 17.784 83.7793 17.784C82.8833 17.784 82.0619 18.0187 81.3153 18.488C80.5793 18.9573 79.9926 19.5867 79.5553 20.376C79.1179 21.1653 78.8993 22.04 78.8993 23C78.8993 23.96 79.1179 24.8347 79.5553 25.624C80.0033 26.4133 80.5953 27.0427 81.3313 27.512C82.0779 27.9707 82.8939 28.2 83.7793 28.2ZM102.554 31.416C101.082 31.416 99.7378 31.0373 98.5218 30.28C97.3164 29.5227 96.3511 28.5093 95.6258 27.24C94.9111 25.96 94.5538 24.5467 94.5538 23C94.5538 21.8267 94.7618 20.7333 95.1778 19.72C95.5938 18.696 96.1644 17.8 96.8898 17.032C97.6258 16.2533 98.4791 15.6453 99.4498 15.208C100.42 14.7707 101.455 14.552 102.554 14.552C104.026 14.552 105.364 14.9307 106.57 15.688C107.786 16.4453 108.751 17.464 109.466 18.744C110.191 20.024 110.554 21.4427 110.554 23C110.554 24.1627 110.346 25.2507 109.93 26.264C109.514 27.2773 108.938 28.1733 108.202 28.952C107.476 29.72 106.628 30.3227 105.658 30.76C104.698 31.1973 103.663 31.416 102.554 31.416ZM102.554 28.088C103.439 28.088 104.234 27.8533 104.938 27.384C105.642 26.9147 106.196 26.296 106.602 25.528C107.018 24.7493 107.226 23.9067 107.226 23C107.226 22.072 107.012 21.2187 106.586 20.44C106.17 19.6613 105.61 19.0427 104.906 18.584C104.202 18.1147 103.418 17.88 102.554 17.88C101.679 17.88 100.884 18.1147 100.17 18.584C99.4658 19.0533 98.9058 19.6773 98.4898 20.456C98.0844 21.2347 97.8818 22.0827 97.8818 23C97.8818 23.9493 98.0951 24.808 98.5218 25.576C98.9484 26.344 99.5138 26.9573 100.218 27.416C100.932 27.864 101.711 28.088 102.554 28.088Z" fill="#0D0D0D"/>
<circle cx="20" cy="20" r="20" fill="#08AC34"/>
</svg>
