<svg width="235" height="40" viewBox="0 0 235 40" fill="none" xmlns="http://www.w3.org/2000/svg">
<g clip-path="url(#clip0_114_147)">
<path d="M12.9121 21.1692C14.857 21.1692 16.4336 19.5953 16.4336 17.6539C16.4336 15.7125 14.857 14.1387 12.9121 14.1387C10.9673 14.1387 9.39062 15.7125 9.39062 17.6539C9.39062 19.5953 10.9673 21.1692 12.9121 21.1692Z" fill="url(#paint0_linear_114_147)"/>
<path d="M19.1046 28.6679C17.5422 26.8805 15.2851 25.8564 12.9122 25.8564C9.65621 25.8564 6.83316 27.754 5.50781 30.5407C7.60662 32.014 10.1573 32.8869 12.9122 32.8869C15.6619 32.8869 18.2082 32.0177 20.3047 30.5496C19.986 29.8841 19.6079 29.2433 19.1046 28.6679Z" fill="url(#paint1_linear_114_147)"/>
<path d="M34.1976 11.7175C37.4337 11.7175 40.0668 9.08913 40.0668 5.85875C40.0668 2.62839 37.4337 0 34.1976 0C30.9615 0 28.3285 2.62839 28.3285 5.85875C28.3285 6.63946 28.4886 7.38225 28.7676 8.06404L22.9507 11.9088C20.5817 8.98483 16.9641 7.10862 12.9121 7.10862C5.7924 7.10862 0 12.8907 0 19.9979C0 23.4881 1.4021 26.6537 3.66705 28.9769C5.47224 25.7007 8.94599 23.5131 12.9121 23.5131C9.67603 23.5131 7.04299 20.8847 7.04299 17.6544C7.04299 14.424 9.67603 11.7956 12.9121 11.7956C16.1483 11.7956 18.7813 14.424 18.7813 17.6544C18.7813 20.8847 16.1483 23.5131 12.9121 23.5131C16.7448 23.5131 20.3017 25.5904 22.163 28.9707C22.4368 28.6895 22.6545 28.3596 22.9021 28.0547L28.7677 31.9317C28.4886 32.6135 28.3285 33.3563 28.3285 34.137C28.3285 37.3673 30.9615 39.9958 34.1976 39.9958C37.4337 39.9958 40.0668 37.3673 40.0668 34.137C40.0668 30.9066 37.4337 28.2782 34.1976 28.2782C32.5883 28.2782 31.1296 28.9299 30.0683 29.9808L24.2082 26.1072C25.2063 24.2815 25.8243 22.2207 25.8243 19.9979C25.8243 17.7747 25.2572 15.6812 24.2603 13.8538L30.0683 10.015C31.1296 11.0658 32.5883 11.7175 34.1976 11.7175Z" fill="url(#paint2_linear_114_147)"/>
<path d="M49.1963 27.9197V11.3369H55.0341C55.9203 11.3369 56.7192 11.5541 57.4313 11.9884C58.1509 12.4227 58.7207 13.011 59.1398 13.7532C59.5672 14.4877 59.7805 15.3089 59.7805 16.217C59.7805 17.0145 59.6223 17.741 59.3059 18.3965C58.9895 19.0519 58.5545 19.6007 58.0006 20.0429C57.4547 20.4772 56.834 20.7773 56.1378 20.9431L60.172 27.9197H57.87L53.9071 21.109H51.1898V27.9197H49.1963ZM51.1898 19.119H54.8325C55.3706 19.119 55.8648 18.9887 56.3156 18.7281C56.7668 18.4596 57.1224 18.1003 57.3837 17.6502C57.6525 17.1922 57.7869 16.679 57.7869 16.1104C57.7869 15.534 57.6525 15.0207 57.3837 14.5706C57.1224 14.1126 56.7668 13.7532 56.3156 13.4927C55.8648 13.2242 55.3706 13.09 54.8325 13.09H51.1898V19.119Z" fill="#0D0D0D"/>
<path d="M71.6679 16.0748H73.6615V27.9197H71.6679L71.5849 25.9179C71.2134 26.6049 70.6991 27.1616 70.0426 27.588C69.3939 28.0145 68.6188 28.2277 67.7168 28.2277C66.8465 28.2277 66.0317 28.0658 65.2724 27.742C64.5132 27.4104 63.8407 26.9563 63.2551 26.3799C62.6778 25.7955 62.2266 25.1243 61.9023 24.3662C61.578 23.6082 61.416 22.7909 61.416 21.9144C61.416 21.0694 61.5742 20.2719 61.8906 19.5217C62.207 18.7715 62.6461 18.1161 63.2075 17.5554C63.7773 16.9869 64.4339 16.5447 65.1773 16.2288C65.9211 15.905 66.72 15.7432 67.5744 15.7432C68.5078 15.7432 69.3267 15.9643 70.0305 16.4065C70.7346 16.8408 71.3044 17.4054 71.7393 18.1003L71.6679 16.0748ZM67.6813 26.297C68.4644 26.297 69.1405 26.1075 69.7103 25.7284C70.2876 25.3415 70.7309 24.8203 71.0393 24.1649C71.3557 23.5095 71.5139 22.7869 71.5139 21.9972C71.5139 21.1918 71.3557 20.4653 71.0393 19.8178C70.7229 19.1624 70.2759 18.6452 69.6982 18.2661C69.1289 17.8792 68.4564 17.6857 67.6813 17.6857C66.8978 17.6857 66.1861 17.8792 65.5454 18.2661C64.9047 18.6531 64.3942 19.1742 64.0148 19.8297C63.6429 20.4772 63.4567 21.1997 63.4567 21.9972C63.4567 22.7948 63.6508 23.5213 64.0382 24.1767C64.4259 24.8242 64.9402 25.3415 65.5809 25.7284C66.2216 26.1075 66.9216 26.297 67.6813 26.297Z" fill="#0D0D0D"/>
<path d="M78.0267 33.8419H76.0332V16.0746H78.0267V18.1C78.4304 17.4051 78.968 16.8445 79.6404 16.4181C80.3129 15.9837 81.1118 15.7666 82.0376 15.7666C82.8995 15.7666 83.7068 15.9285 84.4581 16.2522C85.2174 16.576 85.8819 17.0261 86.4517 17.6026C87.021 18.1711 87.4681 18.8305 87.7924 19.5806C88.1167 20.3308 88.2791 21.1363 88.2791 21.997C88.2791 22.8577 88.1167 23.6671 87.7924 24.4252C87.4681 25.1833 87.021 25.8505 86.4517 26.427C85.8819 26.9956 85.2174 27.4417 84.4581 27.7655C83.7068 28.0892 82.8995 28.2511 82.0376 28.2511C81.1118 28.2511 80.3129 28.0379 79.6404 27.6115C78.968 27.1771 78.4304 26.6126 78.0267 25.9176V33.8419ZM82.0138 17.6973C81.2466 17.6973 80.5742 17.8908 79.9965 18.2777C79.4192 18.6646 78.9722 19.1819 78.6558 19.8294C78.3473 20.4769 78.1929 21.1994 78.1929 21.997C78.1929 22.7866 78.3473 23.5092 78.6558 24.1646C78.9722 24.82 79.415 25.3412 79.9848 25.7281C80.5621 26.1151 81.2387 26.3085 82.0138 26.3085C82.781 26.3085 83.4852 26.119 84.1259 25.74C84.7666 25.3531 85.2808 24.8358 85.6686 24.1883C86.056 23.5329 86.2501 22.8024 86.2501 21.997C86.2501 21.2074 86.0601 20.4888 85.6803 19.8412C85.3005 19.1858 84.7904 18.6646 84.1497 18.2777C83.509 17.8908 82.7969 17.6973 82.0138 17.6973Z" fill="#0D0D0D"/>
<path d="M90.101 16.0748H92.0946V27.9197H90.101V16.0748ZM91.1212 14.1441C90.8048 14.1441 90.5401 14.0414 90.3264 13.8361C90.1127 13.6308 90.0059 13.3742 90.0059 13.0662C90.0059 12.7582 90.1127 12.5016 90.3264 12.2962C90.5401 12.0909 90.801 11.9883 91.1095 11.9883C91.4179 11.9883 91.6792 12.0909 91.8925 12.2962C92.1063 12.5016 92.2131 12.7582 92.2131 13.0662C92.2131 13.3742 92.1063 13.6308 91.8925 13.8361C91.6872 14.0414 91.43 14.1441 91.1212 14.1441Z" fill="#0D0D0D"/>
<path d="M104.334 10.1523H106.328V27.9197H104.334V25.9061C103.931 26.601 103.389 27.1616 102.709 27.588C102.028 28.0144 101.229 28.2276 100.312 28.2276C99.4494 28.2276 98.6426 28.0658 97.8908 27.742C97.1395 27.4183 96.475 26.9721 95.8977 26.4036C95.328 25.8271 94.8809 25.1638 94.5566 24.4136C94.2323 23.6634 94.0703 22.858 94.0703 21.9972C94.0703 21.1365 94.2323 20.3311 94.5566 19.5809C94.8809 18.8228 95.328 18.1595 95.8977 17.5909C96.475 17.0145 97.1395 16.5644 97.8908 16.2406C98.6426 15.9168 99.4494 15.755 100.312 15.755C101.229 15.755 102.028 15.9682 102.709 16.3946C103.389 16.821 103.931 17.3817 104.334 18.0766V10.1523ZM100.336 26.2969C101.119 26.2969 101.795 26.1074 102.365 25.7284C102.942 25.3414 103.385 24.8203 103.694 24.1648C104.01 23.5094 104.168 22.7869 104.168 21.9972C104.168 21.1918 104.01 20.4653 103.694 19.8178C103.377 19.1623 102.93 18.6451 102.352 18.2661C101.783 17.8792 101.111 17.6857 100.336 17.6857C99.5521 17.6857 98.8404 17.8792 98.1997 18.2661C97.5665 18.6531 97.0602 19.1742 96.6808 19.8296C96.3009 20.4771 96.111 21.1997 96.111 21.9972C96.111 22.7948 96.3051 23.5213 96.6925 24.1767C97.0802 24.8242 97.5945 25.3414 98.2352 25.7284C98.8759 26.1074 99.5759 26.2969 100.336 26.2969Z" fill="#0D0D0D"/>
<path d="M125.091 11.3369H127.085V27.9197H125.091V20.031H116.869V27.9197H114.875V11.3369H116.869V18.0411H125.091V11.3369Z" fill="#0D0D0D"/>
<path d="M129.939 27.9197V11.3369H135.777C136.663 11.3369 137.462 11.5541 138.174 11.9884C138.894 12.4227 139.464 13.011 139.883 13.7532C140.31 14.4877 140.524 15.3089 140.524 16.217C140.524 17.0145 140.365 17.741 140.049 18.3965C139.733 19.0519 139.298 19.6007 138.744 20.0429C138.198 20.4772 137.577 20.7773 136.881 20.9431L140.915 27.9197H138.613L134.65 21.109H131.933V27.9197H129.939ZM131.933 19.119H135.576C136.114 19.119 136.608 18.9887 137.059 18.7281C137.51 18.4596 137.866 18.1003 138.127 17.6502C138.396 17.1922 138.53 16.679 138.53 16.1104C138.53 15.534 138.396 15.0207 138.127 14.5706C137.866 14.1126 137.51 13.7532 137.059 13.4927C136.608 13.2242 136.114 13.09 135.576 13.09H131.933V19.119Z" fill="#0D0D0D"/>
<path d="M156.865 28.228C155.742 28.228 154.686 28.007 153.697 27.5648C152.708 27.1146 151.838 26.4987 151.086 25.717C150.342 24.9273 149.757 24.0113 149.33 22.9689C148.911 21.9266 148.701 20.8132 148.701 19.6287C148.701 18.4442 148.911 17.3308 149.33 16.2884C149.757 15.246 150.342 14.334 151.086 13.5523C151.838 12.7626 152.708 12.1466 153.697 11.7044C154.686 11.2543 155.742 11.0293 156.865 11.0293C158.21 11.0293 159.448 11.3412 160.579 11.965C161.71 12.5889 162.648 13.418 163.391 14.4525L161.623 15.4C161.069 14.6735 160.369 14.0971 159.523 13.6707C158.684 13.2364 157.798 13.0192 156.865 13.0192C156.002 13.0192 155.196 13.193 154.444 13.5404C153.7 13.8878 153.048 14.3656 152.486 14.9736C151.924 15.5817 151.486 16.2845 151.169 17.082C150.852 17.8796 150.694 18.7285 150.694 19.6287C150.694 20.5368 150.852 21.3896 151.169 22.1872C151.494 22.9847 151.936 23.6875 152.498 24.2955C153.068 24.9036 153.724 25.3813 154.468 25.7288C155.219 26.0683 156.018 26.2381 156.865 26.2381C157.83 26.2381 158.724 26.021 159.546 25.5867C160.377 25.1445 161.069 24.568 161.623 23.8573L163.391 24.8167C162.648 25.8512 161.71 26.6803 160.579 27.3042C159.448 27.9201 158.21 28.228 156.865 28.228Z" fill="#0D0D0D"/>
<path d="M170.341 28.2277C169.249 28.2277 168.253 27.9474 167.351 27.3867C166.457 26.826 165.741 26.0759 165.203 25.1362C164.673 24.1886 164.408 23.1423 164.408 21.9972C164.408 21.1286 164.562 20.3192 164.871 19.5691C165.18 18.811 165.602 18.1477 166.14 17.5791C166.686 17.0027 167.319 16.5526 168.039 16.2288C168.759 15.905 169.526 15.7432 170.341 15.7432C171.433 15.7432 172.425 16.0235 173.319 16.5842C174.221 17.1448 174.937 17.899 175.467 18.8465C176.005 19.7941 176.274 20.8444 176.274 21.9972C176.274 22.858 176.12 23.6635 175.811 24.4136C175.503 25.1638 175.075 25.8271 174.53 26.4036C173.992 26.9721 173.363 27.4183 172.643 27.742C171.931 28.0658 171.164 28.2277 170.341 28.2277ZM170.341 26.2377C171.085 26.2377 171.753 26.0443 172.346 25.6573C172.947 25.2625 173.418 24.7453 173.759 24.1057C174.107 23.4581 174.281 22.7553 174.281 21.9972C174.281 21.2234 174.102 20.5127 173.746 19.8652C173.398 19.2177 172.928 18.7005 172.334 18.3135C171.741 17.9266 171.077 17.7331 170.341 17.7331C169.597 17.7331 168.929 17.9305 168.336 18.3253C167.742 18.7123 167.272 19.2295 166.923 19.877C166.576 20.5245 166.402 21.2313 166.402 21.9972C166.402 22.7869 166.58 23.5055 166.936 24.153C167.292 24.7927 167.77 25.302 168.371 25.681C168.973 26.0522 169.629 26.2377 170.341 26.2377Z" fill="#0D0D0D"/>
<path d="M188.728 20.5522V27.9197H186.735V20.9905C186.735 20.3903 186.588 19.8455 186.295 19.3559C186.003 18.8663 185.611 18.4793 185.12 18.195C184.63 17.9029 184.084 17.7568 183.483 17.7568C182.89 17.7568 182.344 17.9029 181.846 18.195C181.355 18.4793 180.964 18.8663 180.671 19.3559C180.378 19.8455 180.232 20.3903 180.232 20.9905V27.9197H178.238V16.0748H180.232V17.5554C180.651 17.0027 181.181 16.5644 181.822 16.2407C182.463 15.909 183.159 15.7432 183.91 15.7432C184.796 15.7432 185.603 15.9603 186.331 16.3946C187.067 16.821 187.648 17.3975 188.075 18.124C188.51 18.8505 188.728 19.6599 188.728 20.5522Z" fill="#0D0D0D"/>
<path d="M201.589 20.5522V27.9197H199.596V20.9905C199.596 20.3903 199.449 19.8455 199.156 19.3559C198.864 18.8663 198.472 18.4793 197.982 18.195C197.491 17.9029 196.945 17.7568 196.344 17.7568C195.751 17.7568 195.205 17.9029 194.707 18.195C194.216 18.4793 193.825 18.8663 193.532 19.3559C193.239 19.8455 193.093 20.3903 193.093 20.9905V27.9197H191.1V16.0748H193.093V17.5554C193.512 17.0027 194.042 16.5644 194.683 16.2407C195.324 15.909 196.02 15.7432 196.771 15.7432C197.657 15.7432 198.464 15.9603 199.192 16.3946C199.928 16.821 200.509 17.3975 200.936 18.124C201.372 18.8505 201.589 19.6599 201.589 20.5522Z" fill="#0D0D0D"/>
<path d="M208.953 28.2277C207.861 28.2277 206.864 27.9474 205.962 27.3867C205.068 26.826 204.352 26.0759 203.815 25.1362C203.285 24.1886 203.02 23.1423 203.02 21.9972C203.02 21.1286 203.174 20.3192 203.482 19.5691C203.791 18.811 204.214 18.1477 204.752 17.5791C205.298 17.0027 205.931 16.5526 206.651 16.2288C207.37 15.905 208.138 15.7432 208.953 15.7432C209.846 15.7432 210.665 15.9248 211.409 16.288C212.16 16.6434 212.801 17.1409 213.331 17.7805C213.869 18.4201 214.268 19.1624 214.53 20.0073C214.798 20.8522 214.897 21.7564 214.826 22.7198H205.143C205.238 23.391 205.46 23.9912 205.808 24.5202C206.156 25.0414 206.599 25.456 207.137 25.764C207.683 26.0719 208.288 26.2298 208.953 26.2377C209.664 26.2377 210.309 26.0561 210.887 25.6929C211.464 25.3217 211.931 24.8163 212.287 24.1767L214.316 24.6505C213.841 25.7008 213.125 26.5615 212.168 27.2327C211.211 27.896 210.139 28.2277 208.953 28.2277ZM205.084 21.1563H212.821C212.758 20.493 212.544 19.8889 212.18 19.344C211.816 18.7912 211.353 18.349 210.792 18.0174C210.23 17.6857 209.617 17.5199 208.953 17.5199C208.288 17.5199 207.679 17.6818 207.125 18.0055C206.571 18.3293 206.113 18.7676 205.749 19.3203C205.392 19.8652 205.171 20.4772 205.084 21.1563Z" fill="#0D0D0D"/>
<path d="M224.93 24.7927L226.71 25.7521C226.173 26.5023 225.488 27.1024 224.657 27.5525C223.835 28.0026 222.941 28.2277 221.976 28.2277C220.884 28.2277 219.887 27.9474 218.986 27.3867C218.092 26.826 217.376 26.0759 216.838 25.1362C216.308 24.1886 216.043 23.1423 216.043 21.9972C216.043 21.1286 216.197 20.3192 216.506 19.5691C216.814 18.811 217.238 18.1477 217.775 17.5791C218.321 17.0027 218.954 16.5526 219.674 16.2288C220.394 15.905 221.161 15.7432 221.976 15.7432C222.941 15.7432 223.835 15.9682 224.657 16.4183C225.488 16.8684 226.173 17.4725 226.71 18.2306L224.93 19.19C224.551 18.7241 224.1 18.3648 223.578 18.1122C223.056 17.8595 222.522 17.7331 221.976 17.7331C221.24 17.7331 220.572 17.9305 219.97 18.3253C219.377 18.7123 218.906 19.2295 218.558 19.877C218.211 20.5245 218.037 21.2313 218.037 21.9972C218.037 22.7632 218.211 23.47 218.558 24.1175C218.914 24.7571 219.389 25.2704 219.982 25.6573C220.584 26.0443 221.248 26.2377 221.976 26.2377C222.561 26.2377 223.111 26.1035 223.625 25.835C224.139 25.5665 224.574 25.2191 224.93 24.7927Z" fill="#0D0D0D"/>
<path d="M234.999 18.0647H232.306L232.294 27.9196H230.3L230.312 18.0647H228.271V16.0748H230.312L230.3 12.3555H232.294L232.306 16.0748H234.999V18.0647Z" fill="#0D0D0D"/>
</g>
<defs>
<linearGradient id="paint0_linear_114_147" x1="-2.45965e-05" y1="19.9974" x2="40.0668" y2="19.9974" gradientUnits="userSpaceOnUse">
<stop stop-color="#06B53A"/>
<stop offset="1" stop-color="#007724"/>
</linearGradient>
<linearGradient id="paint1_linear_114_147" x1="4.66556e-05" y1="19.9977" x2="40.0668" y2="19.9977" gradientUnits="userSpaceOnUse">
<stop stop-color="#06B53A"/>
<stop offset="1" stop-color="#007724"/>
</linearGradient>
<linearGradient id="paint2_linear_114_147" x1="0" y1="19.9979" x2="40.0668" y2="19.9979" gradientUnits="userSpaceOnUse">
<stop stop-color="#06B53A"/>
<stop offset="1" stop-color="#007724"/>
</linearGradient>
<clipPath id="clip0_114_147">
<rect width="235" height="40" fill="white"/>
</clipPath>
</defs>
</svg>
