<svg width="563" height="96" viewBox="0 0 563 96" fill="none" xmlns="http://www.w3.org/2000/svg">
<path d="M30.9342 50.8071C35.5936 50.8071 39.3708 47.0299 39.3708 42.3705C39.3708 37.7111 35.5936 33.9339 30.9342 33.9339C26.2748 33.9339 22.4976 37.7111 22.4976 42.3705C22.4976 47.0299 26.2748 50.8071 30.9342 50.8071Z" fill="url(#paint0_linear_111_257)"/>
<path d="M45.7697 68.8035C42.0265 64.5137 36.619 62.0559 30.9342 62.0559C23.1337 62.0559 16.3704 66.61 13.1952 73.2981C18.2234 76.834 24.3342 78.9291 30.9342 78.9291C37.5219 78.9291 43.6221 76.843 48.6447 73.3195C47.8813 71.7222 46.9754 70.1843 45.7697 68.8035Z" fill="url(#paint1_linear_111_257)"/>
<path d="M81.9288 28.122C89.6816 28.122 95.9898 21.8139 95.9898 14.061C95.9898 6.30814 89.6816 0 81.9288 0C74.1759 0 67.8678 6.30814 67.8678 14.061C67.8678 15.9347 68.2515 17.7174 68.9199 19.3537L54.9841 28.581C49.3085 21.5636 40.6417 17.0607 30.9342 17.0607C13.8771 17.0607 0 30.9378 0 47.9949C0 56.3715 3.35908 63.9689 8.78531 69.5446C13.1101 61.6817 21.4323 56.4315 30.9342 56.4315C23.1813 56.4315 16.8732 50.1233 16.8732 42.3705C16.8732 34.6176 23.1813 28.3095 30.9342 28.3095C38.6871 28.3095 44.9952 34.6176 44.9952 42.3705C44.9952 50.1233 38.6871 56.4315 30.9342 56.4315C40.1162 56.4315 48.6376 61.4169 53.0968 69.5296C53.7528 68.8547 54.2743 68.0631 54.8675 67.3312L68.9201 76.636C68.2515 78.2723 67.8678 80.0551 67.8678 81.9288C67.8678 89.6816 74.1759 95.9898 81.9288 95.9898C89.6816 95.9898 95.9898 89.6816 95.9898 81.9288C95.9898 74.1759 89.6816 67.8678 81.9288 67.8678C78.0732 67.8678 74.5786 69.4317 72.036 71.9539L57.9966 62.6573C60.3879 58.2755 61.8684 53.3296 61.8684 47.9949C61.8684 42.6592 60.5097 37.6349 58.1214 33.249L72.036 24.0359C74.5786 26.558 78.0732 28.122 81.9288 28.122Z" fill="url(#paint2_linear_111_257)"/>
<path d="M117.861 67.0078V27.209H131.847C133.97 27.209 135.884 27.7302 137.59 28.7725C139.314 29.8149 140.679 31.2268 141.683 33.0082C142.707 34.7708 143.218 36.7418 143.218 38.9212C143.218 40.8353 142.839 42.5789 142.081 44.1519C141.323 45.7249 140.281 47.0421 138.954 48.1034C137.646 49.1457 136.159 49.8659 134.491 50.2639L144.156 67.0078H138.641L129.147 50.6619H122.637V67.0078H117.861ZM122.637 45.886H131.364C132.653 45.886 133.837 45.5733 134.917 44.9479C135.998 44.3035 136.85 43.4412 137.476 42.361C138.12 41.2618 138.442 40.0299 138.442 38.6654C138.442 37.2819 138.12 36.05 137.476 34.9698C136.85 33.8706 135.998 33.0082 134.917 32.3828C133.837 31.7385 132.653 31.4163 131.364 31.4163H122.637V45.886Z" fill="white"/>
<path d="M171.698 38.5801H176.474V67.0078H171.698L171.499 62.2035C170.609 63.8523 169.377 65.1884 167.804 66.2118C166.25 67.2352 164.392 67.7469 162.232 67.7469C160.147 67.7469 158.195 67.3584 156.376 66.5814C154.556 65.7854 152.946 64.6957 151.543 63.3122C150.16 61.9098 149.079 60.2989 148.302 58.4795C147.525 56.6601 147.137 54.6986 147.137 52.595C147.137 50.5671 147.516 48.653 148.274 46.8526C149.032 45.0521 150.084 43.4791 151.429 42.1335C152.794 40.769 154.367 39.7077 156.148 38.9496C157.93 38.1726 159.844 37.7841 161.891 37.7841C164.127 37.7841 166.089 38.3148 167.775 39.3761C169.462 40.4184 170.827 41.7735 171.869 43.4412L171.698 38.5801ZM162.147 63.1132C164.023 63.1132 165.643 62.6584 167.008 61.7487C168.391 60.82 169.453 59.5692 170.192 57.9962C170.95 56.4232 171.329 54.6891 171.329 52.7939C171.329 50.8609 170.95 49.1173 170.192 47.5632C169.434 45.9902 168.363 44.7489 166.979 43.8392C165.615 42.9106 164.004 42.4463 162.147 42.4463C160.27 42.4463 158.565 42.9106 157.03 43.8392C155.495 44.7679 154.272 46.0187 153.363 47.5917C152.472 49.1457 152.026 50.8798 152.026 52.7939C152.026 54.7081 152.491 56.4517 153.419 58.0247C154.348 59.5787 155.58 60.82 157.115 61.7487C158.65 62.6584 160.327 63.1132 162.147 63.1132Z" fill="white"/>
<path d="M186.932 81.2217H182.156V38.5801H186.932V43.4412C187.899 41.7735 189.187 40.4279 190.798 39.4045C192.409 38.3621 194.323 37.841 196.541 37.841C198.606 37.841 200.54 38.2295 202.34 39.0065C204.159 39.7835 205.751 40.8638 207.116 42.2473C208.48 43.6118 209.551 45.1943 210.328 46.9947C211.105 48.7951 211.494 50.7282 211.494 52.7939C211.494 54.8597 211.105 56.8023 210.328 58.6216C209.551 60.441 208.48 62.0424 207.116 63.4259C205.751 64.7905 204.159 65.8612 202.34 66.6383C200.54 67.4153 198.606 67.8038 196.541 67.8038C194.323 67.8038 192.409 67.2921 190.798 66.2687C189.187 65.2263 187.899 63.8713 186.932 62.2035V81.2217ZM196.484 42.4747C194.646 42.4747 193.035 42.939 191.651 43.8676C190.268 44.7963 189.197 46.0376 188.439 47.5917C187.7 49.1457 187.33 50.8798 187.33 52.7939C187.33 54.6891 187.7 56.4232 188.439 57.9962C189.197 59.5692 190.258 60.82 191.623 61.7487C193.006 62.6773 194.627 63.1416 196.484 63.1416C198.322 63.1416 200.009 62.6868 201.544 61.7771C203.079 60.8485 204.311 59.6071 205.24 58.0531C206.168 56.4801 206.633 54.727 206.633 52.7939C206.633 50.8988 206.178 49.1742 205.268 47.6201C204.358 46.0471 203.136 44.7963 201.601 43.8676C200.066 42.939 198.36 42.4747 196.484 42.4747Z" fill="white"/>
<path d="M215.859 38.5801H220.635V67.0078H215.859V38.5801ZM218.303 33.9464C217.545 33.9464 216.911 33.7 216.399 33.2072C215.887 32.7145 215.631 32.0986 215.631 31.3594C215.631 30.6203 215.887 30.0044 216.399 29.5116C216.911 29.0189 217.536 28.7725 218.275 28.7725C219.014 28.7725 219.64 29.0189 220.151 29.5116C220.663 30.0044 220.919 30.6203 220.919 31.3594C220.919 32.0986 220.663 32.7145 220.151 33.2072C219.659 33.7 219.043 33.9464 218.303 33.9464Z" fill="white"/>
<path d="M249.959 24.3662H254.734V67.0078H249.959V62.1751C248.992 63.8429 247.694 65.1884 246.064 66.2118C244.434 67.2352 242.52 67.7469 240.322 67.7469C238.256 67.7469 236.323 67.3584 234.522 66.5814C232.722 65.8044 231.13 64.7336 229.747 63.3691C228.382 61.9856 227.311 60.3936 226.534 58.5932C225.757 56.7928 225.369 54.8597 225.369 52.7939C225.369 50.7282 225.757 48.7951 226.534 46.9947C227.311 45.1753 228.382 43.5834 229.747 42.2188C231.13 40.8353 232.722 39.7551 234.522 38.9781C236.323 38.201 238.256 37.8125 240.322 37.8125C242.52 37.8125 244.434 38.3242 246.064 39.3476C247.694 40.371 248.992 41.7166 249.959 43.3844V24.3662ZM240.378 63.1132C242.255 63.1132 243.875 62.6584 245.24 61.7487C246.623 60.82 247.684 59.5692 248.424 57.9962C249.182 56.4232 249.561 54.6891 249.561 52.7939C249.561 50.8609 249.182 49.1173 248.424 47.5632C247.665 45.9902 246.595 44.7489 245.211 43.8392C243.847 42.9106 242.236 42.4463 240.378 42.4463C238.502 42.4463 236.797 42.9106 235.261 43.8392C233.745 44.7679 232.532 46.0187 231.623 47.5917C230.713 49.1457 230.258 50.8798 230.258 52.7939C230.258 54.7081 230.723 56.4517 231.651 58.0247C232.58 59.5787 233.812 60.82 235.347 61.7487C236.882 62.6584 238.559 63.1132 240.378 63.1132Z" fill="white"/>
<path d="M299.689 27.209H304.465V67.0078H299.689V48.0749H279.989V67.0078H275.213V27.209H279.989V43.2991H299.689V27.209Z" fill="white"/>
<path d="M311.303 67.0078V27.209H325.289C327.412 27.209 329.326 27.7302 331.031 28.7725C332.756 29.8149 334.121 31.2268 335.125 33.0082C336.148 34.7708 336.66 36.7418 336.66 38.9212C336.66 40.8353 336.281 42.5789 335.523 44.1519C334.765 45.7249 333.723 47.0421 332.396 48.1034C331.088 49.1457 329.601 49.8659 327.933 50.2639L337.598 67.0078H332.083L322.588 50.6619H316.078V67.0078H311.303ZM316.078 45.886H324.806C326.094 45.886 327.279 45.5733 328.359 44.9479C329.439 44.3035 330.292 43.4412 330.918 42.361C331.562 41.2618 331.884 40.0299 331.884 38.6654C331.884 37.2819 331.562 36.05 330.918 34.9698C330.292 33.8706 329.439 33.0082 328.359 32.3828C327.279 31.7385 326.094 31.4163 324.806 31.4163H316.078V45.886Z" fill="white"/>
<path d="M375.808 67.7469C373.117 67.7469 370.587 67.2163 368.218 66.155C365.849 65.0747 363.764 63.5965 361.963 61.7203C360.182 59.8251 358.78 57.6267 357.756 55.125C356.752 52.6234 356.249 49.9512 356.249 47.1084C356.249 44.2656 356.752 41.5934 357.756 39.0918C358.78 36.5901 360.182 34.4012 361.963 32.525C363.764 30.6298 365.849 29.1515 368.218 28.0902C370.587 27.01 373.117 26.4699 375.808 26.4699C379.03 26.4699 381.996 27.2185 384.706 28.7157C387.416 30.2129 389.662 32.2028 391.443 34.6855L387.207 36.9597C385.881 35.2161 384.203 33.8326 382.176 32.8092C380.167 31.7669 378.044 31.2457 375.808 31.2457C373.742 31.2457 371.809 31.6627 370.009 32.4965C368.227 33.3304 366.664 34.477 365.318 35.9363C363.972 37.3956 362.921 39.0823 362.162 40.9964C361.404 42.9106 361.025 44.9479 361.025 47.1084C361.025 49.2879 361.404 51.3347 362.162 53.2488C362.939 55.1629 364.001 56.8496 365.346 58.3089C366.711 59.7682 368.284 60.9148 370.065 61.7487C371.866 62.5636 373.78 62.9711 375.808 62.9711C378.12 62.9711 380.261 62.4499 382.232 61.4076C384.222 60.3463 385.881 58.9628 387.207 57.2571L391.443 59.5597C389.662 62.0424 387.416 64.0324 384.706 65.5296C381.996 67.0078 379.03 67.7469 375.808 67.7469Z" fill="white"/>
<path d="M408.095 67.7469C405.479 67.7469 403.091 67.0742 400.931 65.7286C398.789 64.383 397.074 62.5826 395.785 60.3273C394.516 58.0531 393.881 55.542 393.881 52.7939C393.881 50.7092 394.25 48.7667 394.989 46.9663C395.729 45.1469 396.742 43.5549 398.031 42.1904C399.339 40.8069 400.855 39.7267 402.58 38.9496C404.304 38.1726 406.143 37.7841 408.095 37.7841C410.71 37.7841 413.088 38.4569 415.23 39.8025C417.39 41.1481 419.106 42.958 420.375 45.2322C421.664 47.5064 422.308 50.027 422.308 52.7939C422.308 54.8597 421.939 56.7928 421.2 58.5932C420.461 60.3936 419.437 61.9856 418.13 63.3691C416.841 64.7336 415.334 65.8044 413.61 66.5814C411.904 67.3584 410.066 67.7469 408.095 67.7469ZM408.095 62.9711C409.876 62.9711 411.477 62.5068 412.899 61.5781C414.339 60.6305 415.467 59.3892 416.282 57.8541C417.116 56.3 417.533 54.6133 417.533 52.7939C417.533 50.9367 417.106 49.231 416.253 47.677C415.419 46.1229 414.292 44.8816 412.87 43.9529C411.449 43.0243 409.857 42.56 408.095 42.56C406.313 42.56 404.712 43.0338 403.29 43.9813C401.869 44.91 400.741 46.1513 399.907 47.7054C399.074 49.2594 398.657 50.9556 398.657 52.7939C398.657 54.6891 399.083 56.4137 399.936 57.9678C400.789 59.5029 401.935 60.7253 403.376 61.635C404.816 62.5257 406.389 62.9711 408.095 62.9711Z" fill="white"/>
<path d="M452.142 49.3258V67.0078H447.367V50.3776C447.367 48.9373 447.016 47.6296 446.315 46.4546C445.614 45.2796 444.675 44.3509 443.5 43.6686C442.325 42.9674 441.018 42.6168 439.577 42.6168C438.156 42.6168 436.848 42.9674 435.654 43.6686C434.479 44.3509 433.541 45.2796 432.84 46.4546C432.139 47.6296 431.788 48.9373 431.788 50.3776V67.0078H427.012V38.5801H431.788V42.1335C432.793 40.8069 434.062 39.7551 435.598 38.9781C437.133 38.1821 438.8 37.7841 440.601 37.7841C442.723 37.7841 444.656 38.3053 446.4 39.3476C448.163 40.371 449.556 41.7545 450.579 43.4981C451.621 45.2416 452.142 47.1842 452.142 49.3258Z" fill="white"/>
<path d="M482.958 49.3258V67.0078H478.182V50.3776C478.182 48.9373 477.831 47.6296 477.13 46.4546C476.429 45.2796 475.491 44.3509 474.316 43.6686C473.141 42.9674 471.833 42.6168 470.393 42.6168C468.971 42.6168 467.664 42.9674 466.47 43.6686C465.295 44.3509 464.356 45.2796 463.655 46.4546C462.954 47.6296 462.603 48.9373 462.603 50.3776V67.0078H457.828V38.5801H462.603V42.1335C463.608 40.8069 464.878 39.7551 466.413 38.9781C467.948 38.1821 469.616 37.7841 471.416 37.7841C473.539 37.7841 475.472 38.3053 477.215 39.3476C478.978 40.371 480.371 41.7545 481.394 43.4981C482.437 45.2416 482.958 47.1842 482.958 49.3258Z" fill="white"/>
<path d="M500.596 67.7469C497.98 67.7469 495.592 67.0742 493.432 65.7286C491.29 64.383 489.575 62.5826 488.287 60.3273C487.017 58.0531 486.382 55.542 486.382 52.7939C486.382 50.7092 486.751 48.7667 487.491 46.9663C488.23 45.1469 489.244 43.5549 490.532 42.1904C491.84 40.8069 493.356 39.7267 495.081 38.9496C496.805 38.1726 498.644 37.7841 500.596 37.7841C502.737 37.7841 504.699 38.22 506.48 39.0918C508.281 39.9446 509.816 41.1386 511.086 42.6737C512.374 44.2088 513.331 45.9902 513.957 48.0181C514.601 50.0459 514.838 52.2159 514.667 54.528H491.47C491.698 56.1389 492.229 57.5793 493.062 58.8491C493.896 60.0999 494.958 61.0948 496.246 61.834C497.554 62.5731 499.004 62.9521 500.596 62.9711C502.301 62.9711 503.846 62.5352 505.229 61.6634C506.613 60.7727 507.731 59.5597 508.584 58.0247L513.445 59.1618C512.308 61.6824 510.593 63.7481 508.3 65.359C506.007 66.951 503.439 67.7469 500.596 67.7469ZM491.328 50.7756H509.863C509.712 49.1836 509.2 47.7338 508.328 46.4261C507.456 45.0995 506.348 44.0382 505.002 43.2422C503.656 42.4463 502.188 42.0483 500.596 42.0483C499.004 42.0483 497.545 42.4368 496.218 43.2138C494.891 43.9908 493.792 45.0427 492.92 46.3693C492.067 47.677 491.537 49.1457 491.328 50.7756Z" fill="white"/>
<path d="M538.878 59.5029L543.142 61.8055C541.854 63.606 540.214 65.0463 538.224 66.1266C536.253 67.2068 534.112 67.7469 531.8 67.7469C529.184 67.7469 526.796 67.0742 524.636 65.7286C522.494 64.383 520.779 62.5826 519.49 60.3273C518.221 58.0531 517.586 55.542 517.586 52.7939C517.586 50.7092 517.955 48.7667 518.694 46.9663C519.434 45.1469 520.447 43.5549 521.736 42.1904C523.044 40.8069 524.56 39.7267 526.285 38.9496C528.009 38.1726 529.848 37.7841 531.8 37.7841C534.112 37.7841 536.253 38.3242 538.224 39.4045C540.214 40.4847 541.854 41.9346 543.142 43.7539L538.878 46.0566C537.968 44.9384 536.888 44.0761 535.637 43.4697C534.387 42.8632 533.107 42.56 531.8 42.56C530.037 42.56 528.436 43.0338 526.995 43.9813C525.574 44.91 524.446 46.1513 523.612 47.7054C522.779 49.2594 522.362 50.9556 522.362 52.7939C522.362 54.6323 522.779 56.3285 523.612 57.8825C524.465 59.4176 525.602 60.6495 527.024 61.5781C528.464 62.5068 530.056 62.9711 531.8 62.9711C533.202 62.9711 534.519 62.6489 535.751 62.0045C536.983 61.3602 538.025 60.5263 538.878 59.5029Z" fill="white"/>
<path d="M563 43.3559H556.547L556.518 67.0078H551.743L551.771 43.3559H546.881V38.5801H551.771L551.743 29.6538H556.518L556.547 38.5801H563V43.3559Z" fill="white"/>
<defs>
<linearGradient id="paint0_linear_111_257" x1="0" y1="47.9949" x2="95.9898" y2="47.9949" gradientUnits="userSpaceOnUse">
<stop stop-color="#06B53A"/>
<stop offset="1" stop-color="#007724"/>
</linearGradient>
<linearGradient id="paint1_linear_111_257" x1="0" y1="47.9949" x2="95.9898" y2="47.9949" gradientUnits="userSpaceOnUse">
<stop stop-color="#06B53A"/>
<stop offset="1" stop-color="#007724"/>
</linearGradient>
<linearGradient id="paint2_linear_111_257" x1="0" y1="47.9949" x2="95.9898" y2="47.9949" gradientUnits="userSpaceOnUse">
<stop stop-color="#06B53A"/>
<stop offset="1" stop-color="#007724"/>
</linearGradient>
</defs>
</svg>
