<svg width="157" height="40" viewBox="0 0 157 40" fill="none" xmlns="http://www.w3.org/2000/svg">
<path d="M50.8744 28.8471V11.2063H57.3637C58.3214 11.2063 59.1824 11.4415 59.9468 11.912C60.7113 12.3824 61.3161 13.0166 61.7613 13.8146C62.2149 14.6043 62.4417 15.4863 62.4417 16.4607C62.4417 17.284 62.2863 18.0358 61.9755 18.7163C61.6731 19.3967 61.2447 19.9763 60.6903 20.4551C60.1442 20.934 59.5184 21.2784 58.8128 21.4884L63.0717 28.8471H60.0351L55.9021 21.7278H53.4953V28.8471H50.8744ZM53.4953 19.1068H57.0865C57.5906 19.1068 58.0484 18.9808 58.4599 18.7288C58.88 18.4768 59.2118 18.1408 59.4554 17.7208C59.699 17.3008 59.8208 16.8262 59.8208 16.297C59.8208 15.7677 59.699 15.2931 59.4554 14.873C59.2118 14.4446 58.88 14.1086 58.4599 13.865C58.0484 13.613 57.5906 13.487 57.0865 13.487H53.4953V19.1068ZM74.681 16.2466H77.3019V28.8471H74.6684L74.5676 27.02C74.198 27.6668 73.6981 28.1877 73.0681 28.5824C72.4381 28.9773 71.6947 29.1747 70.8379 29.1747C69.9138 29.1747 69.0444 29.0025 68.2295 28.658C67.4147 28.3052 66.6964 27.818 66.0749 27.1964C65.4616 26.5748 64.9827 25.8607 64.6384 25.0543C64.2939 24.2395 64.1217 23.3658 64.1217 22.4334C64.1217 21.5346 64.2898 20.6903 64.6257 19.9007C64.9618 19.1026 65.428 18.4055 66.0244 17.809C66.6208 17.2126 67.3097 16.7464 68.0909 16.4103C68.8805 16.066 69.7248 15.8937 70.6236 15.8937C71.5393 15.8937 72.3457 16.1037 73.0429 16.5238C73.7485 16.9354 74.3323 17.4646 74.7944 18.1114L74.681 16.2466ZM70.7748 26.6419C71.5141 26.6419 72.1609 26.4614 72.7153 26.1002C73.2697 25.7305 73.6981 25.235 74.0005 24.6133C74.3114 23.9917 74.4668 23.3029 74.4668 22.5468C74.4668 21.7824 74.3114 21.0893 74.0005 20.4677C73.6898 19.8461 73.2572 19.3547 72.7027 18.9935C72.1567 18.6238 71.5141 18.4391 70.7748 18.4391C70.044 18.4391 69.3762 18.6238 68.7714 18.9935C68.1665 19.3631 67.6877 19.8587 67.3349 20.4803C66.9821 21.102 66.8057 21.7908 66.8057 22.5468C66.8057 23.3112 66.9863 24.0043 67.3475 24.6259C67.7171 25.2392 68.2001 25.7305 68.7966 26.1002C69.4014 26.4614 70.0608 26.6419 70.7748 26.6419ZM82.4372 35.1474H79.8163V16.2466H82.4372V18.0988C82.8573 17.452 83.3949 16.927 84.0501 16.5238C84.7053 16.1206 85.4782 15.9189 86.3686 15.9189C87.2842 15.9189 88.141 16.0912 88.9391 16.4355C89.7455 16.78 90.4511 17.2588 91.056 17.872C91.6608 18.4768 92.1354 19.1782 92.4799 19.9763C92.8242 20.7744 92.9965 21.6312 92.9965 22.5468C92.9965 23.4624 92.8242 24.3234 92.4799 25.1299C92.1354 25.9363 91.6608 26.6462 91.056 27.2594C90.4511 27.8643 89.7455 28.3389 88.9391 28.6832C88.141 29.0277 87.2842 29.1999 86.3686 29.1999C85.4782 29.1999 84.7053 28.9983 84.0501 28.5951C83.3949 28.1835 82.8573 27.6585 82.4372 27.02V35.1474ZM86.3434 18.4516C85.6125 18.4516 84.97 18.6365 84.4155 19.006C83.8611 19.3757 83.4284 19.8713 83.1176 20.4929C82.8069 21.1062 82.6515 21.7908 82.6515 22.5468C82.6515 23.3029 82.8069 23.9917 83.1176 24.6133C83.4284 25.235 83.8611 25.7305 84.4155 26.1002C84.97 26.4698 85.6125 26.6546 86.3434 26.6546C87.0658 26.6546 87.7294 26.474 88.3343 26.1127C88.9391 25.7432 89.4221 25.2475 89.7834 24.6259C90.1446 24.0043 90.3251 23.3112 90.3251 22.5468C90.3251 21.7992 90.1446 21.1145 89.7834 20.4929C89.4306 19.8713 88.9517 19.3757 88.3469 19.006C87.7421 18.6365 87.0742 18.4516 86.3434 18.4516ZM94.8041 16.2466H97.425V28.8471H94.8041V16.2466ZM96.1397 14.4194C95.7365 14.4194 95.4004 14.2892 95.1317 14.0289C94.8628 13.7685 94.7285 13.4409 94.7285 13.046C94.7285 12.6596 94.8628 12.3362 95.1317 12.0757C95.4004 11.807 95.7323 11.6725 96.1271 11.6725C96.5136 11.6725 96.8412 11.807 97.1099 12.0757C97.3788 12.3362 97.5131 12.6596 97.5131 13.046C97.5131 13.4409 97.3788 13.7685 97.1099 14.0289C96.8495 14.2892 96.5261 14.4194 96.1397 14.4194ZM110.034 9.94629H112.655V28.8471H110.034V26.9949C109.623 27.65 109.085 28.1792 108.421 28.5824C107.758 28.9773 106.981 29.1747 106.09 29.1747C105.175 29.1747 104.318 29.0025 103.52 28.658C102.722 28.3137 102.016 27.8391 101.403 27.2342C100.798 26.621 100.323 25.9154 99.979 25.1173C99.6345 24.3193 99.4623 23.4624 99.4623 22.5468C99.4623 21.6312 99.6345 20.7744 99.979 19.9763C100.323 19.1699 100.798 18.4643 101.403 17.8594C102.016 17.2462 102.722 16.7674 103.52 16.423C104.318 16.0785 105.175 15.9063 106.09 15.9063C106.981 15.9063 107.758 16.1079 108.421 16.5111C109.085 16.906 109.623 17.4268 110.034 18.0736V9.94629ZM106.115 26.6419C106.855 26.6419 107.501 26.4614 108.056 26.1002C108.61 25.7305 109.039 25.235 109.342 24.6133C109.651 23.9917 109.807 23.3029 109.807 22.5468C109.807 21.7824 109.651 21.0893 109.342 20.4677C109.031 19.8461 108.597 19.3547 108.043 18.9935C107.497 18.6238 106.855 18.4391 106.115 18.4391C105.385 18.4391 104.717 18.6238 104.112 18.9935C103.515 19.3631 103.037 19.8587 102.675 20.4803C102.323 21.102 102.146 21.7908 102.146 22.5468C102.146 23.3112 102.327 24.0043 102.688 24.6259C103.058 25.2392 103.541 25.7305 104.137 26.1002C104.742 26.4614 105.401 26.6419 106.115 26.6419ZM127.014 20.9465V28.8471H124.394V21.5892C124.394 21.0264 124.254 20.5139 123.977 20.0519C123.708 19.5899 123.344 19.2245 122.881 18.9556C122.428 18.6784 121.915 18.5399 121.344 18.5399C120.789 18.5399 120.281 18.6784 119.819 18.9556C119.358 19.2245 118.988 19.5899 118.71 20.0519C118.433 20.5139 118.295 21.0264 118.295 21.5892V28.8471H115.674V9.94629H118.295V17.5822C118.731 17.0614 119.269 16.6498 119.908 16.3474C120.546 16.0449 121.234 15.8937 121.974 15.8937C122.906 15.8937 123.754 16.1206 124.519 16.5742C125.284 17.0278 125.888 17.6368 126.334 18.4012C126.787 19.1657 127.014 20.0141 127.014 20.9465ZM129.529 16.2466H132.15V28.8471H129.529V16.2466ZM130.865 14.4194C130.462 14.4194 130.125 14.2892 129.857 14.0289C129.588 13.7685 129.454 13.4409 129.454 13.046C129.454 12.6596 129.588 12.3362 129.857 12.0757C130.125 11.807 130.458 11.6725 130.853 11.6725C131.239 11.6725 131.567 11.807 131.835 12.0757C132.104 12.3362 132.238 12.6596 132.238 13.046C132.238 13.4409 132.104 13.7685 131.835 14.0289C131.575 14.2892 131.251 14.4194 130.865 14.4194ZM135.067 28.8471V16.2466H137.688V17.5822C138.124 17.0614 138.662 16.6498 139.301 16.3474C139.939 16.0449 140.627 15.8937 141.367 15.8937C141.837 15.8937 142.303 15.9567 142.766 16.0827L141.72 18.7288C141.392 18.6028 141.065 18.5399 140.737 18.5399C140.182 18.5399 139.674 18.6784 139.212 18.9556C138.751 19.2245 138.381 19.5899 138.103 20.0519C137.826 20.5139 137.688 21.0264 137.688 21.5892V28.8471H135.067ZM149.175 29.1747C148.016 29.1747 146.958 28.8765 146 28.28C145.051 27.6837 144.291 26.8856 143.719 25.8859C143.156 24.8779 142.875 23.7648 142.875 22.5468C142.875 21.6228 143.039 20.7617 143.366 19.9637C143.694 19.1572 144.144 18.4516 144.715 17.8468C145.294 17.2336 145.967 16.7548 146.731 16.4103C147.495 16.066 148.31 15.8937 149.175 15.8937C150.142 15.8937 151.027 16.0954 151.834 16.4986C152.64 16.8934 153.33 17.4436 153.9 18.1492C154.472 18.8465 154.892 19.6529 155.16 20.5685C155.429 21.4757 155.509 22.4418 155.401 23.4666H145.685C145.794 24.0462 146.004 24.5713 146.315 25.0417C146.634 25.5037 147.037 25.8692 147.525 26.1379C148.02 26.4068 148.571 26.5454 149.175 26.5538C149.813 26.5538 150.394 26.3942 150.915 26.075C151.443 25.7557 151.876 25.3148 152.212 24.7519L154.871 25.3693C154.367 26.4866 153.606 27.4023 152.59 28.1163C151.573 28.8219 150.435 29.1747 149.175 29.1747ZM145.597 21.4632H152.754C152.67 20.8584 152.456 20.3123 152.112 19.8251C151.775 19.3295 151.351 18.9389 150.839 18.6532C150.335 18.3593 149.78 18.2122 149.175 18.2122C148.579 18.2122 148.025 18.3551 147.512 18.6407C147.008 18.9262 146.588 19.3169 146.252 19.8125C145.925 20.2997 145.706 20.85 145.597 21.4632Z" fill="#ffffff"/>
<mask id="mask0_24_298" style="mask-type:alpha" maskUnits="userSpaceOnUse" x="0" y="0" width="40" height="40">
<path d="M20 40C31.0457 40 40 31.0457 40 20C40 8.9543 31.0457 0 20 0C8.9543 0 0 8.9543 0 20C0 31.0457 8.9543 40 20 40Z" fill="#D9D9D9"/>
</mask>
<g mask="url(#mask0_24_298)">
<path d="M9.32974 20.0537H-4.18233C-10.105 20.0537 -14.9062 24.8549 -14.9062 30.7776V41.5014C-14.9062 47.4241 -10.105 52.2253 -4.18233 52.2253H9.32974C15.2524 52.2253 20.0536 47.4241 20.0536 41.5014V30.7776C20.0536 24.8549 15.2524 20.0537 9.32974 20.0537Z" fill="#343434"/>
<path d="M9.32974 20.0537H-4.18233C-10.105 20.0537 -14.9062 24.8549 -14.9062 30.7776V41.5014C-14.9062 47.4241 -10.105 52.2253 -4.18233 52.2253H9.32974C15.2524 52.2253 20.0536 47.4241 20.0536 41.5014V30.7776C20.0536 24.8549 15.2524 20.0537 9.32974 20.0537Z" fill="url(#paint0_linear_24_298)"/>
</g>
<mask id="mask1_24_298" style="mask-type:alpha" maskUnits="userSpaceOnUse" x="0" y="0" width="40" height="40">
<path d="M20 40C31.0457 40 40 31.0457 40 20C40 8.9543 31.0457 0 20 0C8.9543 0 0 8.9543 0 20C0 31.0457 8.9543 40 20 40Z" fill="#D9D9D9"/>
</mask>
<g mask="url(#mask1_24_298)">
<path d="M44.2895 20.0537H30.7775C24.8549 20.0537 20.0536 24.8549 20.0536 30.7776V41.5014C20.0536 47.4241 24.8549 52.2253 30.7775 52.2253H44.2895C50.2122 52.2253 55.0134 47.4241 55.0134 41.5014V30.7776C55.0134 24.8549 50.2122 20.0537 44.2895 20.0537Z" fill="#606060"/>
<path d="M44.2895 20.0537H30.7775C24.8549 20.0537 20.0536 24.8549 20.0536 30.7776V41.5014C20.0536 47.4241 24.8549 52.2253 30.7775 52.2253H44.2895C50.2122 52.2253 55.0134 47.4241 55.0134 41.5014V30.7776C55.0134 24.8549 50.2122 20.0537 44.2895 20.0537Z" fill="url(#paint1_linear_24_298)"/>
</g>
<path d="M12.5469 17.9084C15.5082 17.9084 17.9089 15.5078 17.9089 12.5465C17.9089 9.58519 15.5082 7.18457 12.5469 7.18457C9.58562 7.18457 7.185 9.58519 7.185 12.5465C7.185 15.5078 9.58562 17.9084 12.5469 17.9084Z" fill="#ffffff"/>
<path d="M27.5603 17.9084C30.5216 17.9084 32.9223 15.5078 32.9223 12.5465C32.9223 9.58519 30.5216 7.18457 27.5603 7.18457C24.599 7.18457 22.1984 9.58519 22.1984 12.5465C22.1984 15.5078 24.599 17.9084 27.5603 17.9084Z" fill="#ffffff"/>
<defs>
<linearGradient id="paint0_linear_24_298" x1="-14.9062" y1="36.1395" x2="20.0536" y2="36.1395" gradientUnits="userSpaceOnUse">
<stop stop-color="#06B53A"/>
<stop offset="1" stop-color="#007724"/>
</linearGradient>
<linearGradient id="paint1_linear_24_298" x1="20.0536" y1="36.1395" x2="55.0134" y2="36.1395" gradientUnits="userSpaceOnUse">
<stop stop-color="#06B53A"/>
<stop offset="1" stop-color="#007724"/>
</linearGradient>
</defs>
</svg>
