<svg width="50" height="50" viewBox="0 0 50 50" fill="none" xmlns="http://www.w3.org/2000/svg">
<path d="M49.9965 25.0009C49.9965 37.6274 40.6373 48.0661 28.4788 49.76C27.342 49.9177 26.1789 50 24.9982 50C23.6354 50 22.2972 49.8914 20.9939 49.6812C9.09123 47.7648 0 37.4435 0 25.0009C0 11.1936 11.1932 0 25 0C38.8068 0 50 11.1936 50 25.0009H49.9965Z" fill="#08AC34"/>
<path d="M10.1402 11.0269L21.6697 26.4422L10.0684 38.9759H12.6801L22.8381 28.003L31.0448 38.9759H39.931L27.7533 22.6935L38.5525 11.0269H35.9407L26.5867 21.1327L19.0282 11.0269H10.1419H10.1402ZM13.9799 12.9503H18.0613L36.0879 37.0525H32.0064L13.9799 12.9503Z" fill="#EDEAEB"/>
</svg>
