<svg width="30" height="30" viewBox="0 0 30 30" fill="none" xmlns="http://www.w3.org/2000/svg">
<path d="M29.9979 15.0005C29.9979 22.5765 24.3824 28.8396 17.0873 29.856C16.4052 29.9506 15.7073 30 14.9989 30C14.1813 30 13.3783 29.9348 12.5963 29.8087C5.45474 28.6589 0 22.4661 0 15.0005C0 6.71618 6.71595 0 15 0C23.2841 0 30 6.71618 30 15.0005H29.9979Z" fill="#08AC34"/>
<path d="M6.08326 6.61646L13.001 15.8657L6.04016 23.3859H7.60722L13.702 16.8021L18.626 23.3859H23.9578L16.6511 13.6164L23.1306 6.61646H21.5636L15.9512 12.6799L11.4161 6.61646H6.0843H6.08326ZM8.38706 7.7705H10.8359L21.6519 22.2318H19.203L8.38706 7.7705Z" fill="black"/>
</svg>
