<svg width="24" height="24" viewBox="0 0 24 24" fill="none" xmlns="http://www.w3.org/2000/svg">
<path d="M20.8898 10.3036C21.0162 9.45566 20.9747 8.58758 20.7654 7.75294C20.489 6.65036 19.9196 5.60614 19.0574 4.74389C18.1951 3.88165 17.1509 3.31229 16.0483 3.03582C15.2137 2.82653 14.3456 2.78508 13.4977 2.91147" stroke="white" stroke-width="2" stroke-linecap="round" stroke-linejoin="round"/>
<path d="M17.0946 9.90174C17.23 8.99346 16.948 8.03496 16.2488 7.33575C15.5496 6.63653 14.5911 6.35462 13.6828 6.49001" stroke="white" stroke-width="2" stroke-linecap="round" stroke-linejoin="round"/>
<path d="M6.70959 4.39711C7.36814 4.39711 7.97489 4.75426 8.29453 5.33003L9.02962 6.65417C9.34994 7.23118 9.36499 7.92906 9.06985 8.51934L8.12723 10.4046C8.12723 10.4046 8.46872 12.1603 9.89794 13.5895C11.3272 15.0187 13.077 15.3543 13.077 15.3543L14.9615 14.4121C15.5522 14.1167 16.2506 14.132 16.8278 14.4529L18.1583 15.1926C18.7336 15.5125 19.0903 16.119 19.0903 16.7772V16.7772C19.0903 19.1194 16.9075 20.8083 14.7344 19.935C12.4239 19.0064 9.67805 17.6123 7.77662 15.7108C5.87504 13.8092 4.48077 11.0631 3.55225 8.75251C2.67904 6.5796 4.36779 4.39711 6.70959 4.39711V4.39711Z" stroke="white" stroke-width="2" stroke-linejoin="round"/>
</svg>
