<svg width="117" height="131" viewBox="0 0 117 131" fill="none" xmlns="http://www.w3.org/2000/svg">
<path d="M54.3924 0.156751C67.7943 -0.664076 81.4102 3.01738 92.5803 10.4571C102.708 17.1369 110.844 26.8095 115.563 37.9845C116.299 39.9871 116.043 42.3506 114.785 44.0912C113.418 46.0796 110.894 47.1482 108.511 46.8125C106.284 46.5308 104.263 45.0157 103.39 42.9498C101.195 37.7874 98.1052 33.0081 94.3033 28.8834C87.5929 21.579 78.63 16.3446 68.93 14.2082C61.4476 12.6552 53.6307 12.709 46.1784 14.4045C37.0523 16.5519 28.599 21.4452 22.2024 28.2944C18.7381 32.0313 15.6884 36.1964 13.5438 40.8332C12.8995 42.1068 12.5357 43.5506 11.5545 44.6263C9.73958 46.7682 6.48381 47.4735 3.93498 46.3036C1.51217 45.2675 -0.112543 42.6577 0.0388328 40.0267C0.0610241 38.4222 0.900329 37.0109 1.54071 35.5893C6.67719 24.8014 15.0045 15.5657 25.2109 9.33783C33.9835 3.94111 44.1035 0.751199 54.3924 0.156751Z" fill="#F69F1A"/>
<path d="M1.87041 57.359C2.53773 56.4305 3.61084 55.7696 4.77825 55.806C8.05067 55.8076 11.3247 55.7458 14.5947 55.8416C16.328 55.8574 17.8307 57.3154 18.0066 59.0196C21.241 72.3413 24.4912 85.6589 27.7454 98.9782C28.7543 103.338 29.9962 107.653 30.6992 112.078C31.3975 116.017 31.5314 120.028 32.1686 123.976C32.7527 119.622 33.5159 115.292 34.4836 111.006C35.2746 107.425 36.312 103.906 37.2417 100.358C40.9595 86.5114 44.6837 72.665 48.3952 58.8146C48.801 57.1437 50.3963 55.8535 52.1233 55.8242C55.731 55.7656 59.3434 55.7981 62.9511 55.806C63.6786 55.8099 64.4165 55.7379 65.1337 55.8938C66.4612 56.2128 67.6287 57.1556 68.1882 58.403C68.4442 58.984 68.5757 59.6085 68.7477 60.218C71.2506 69.3192 73.7273 78.4282 76.2111 87.5333C77.033 90.4818 77.7827 93.4524 78.6783 96.3788C80.5471 102.711 82.1243 109.13 83.3955 115.608C83.9828 118.399 84.2245 121.247 84.8229 124.036C86.0577 114.811 87.6872 105.64 89.7098 96.5545C90.6053 92.4084 91.7149 88.3122 92.6081 84.1653C94.5046 75.695 96.3663 67.2144 98.2906 58.7505C98.5767 57.5046 99.5302 56.4527 100.729 56.0197C101.425 55.7419 102.188 55.802 102.922 55.8036C105.793 55.8115 108.665 55.7482 111.533 55.8376C112.766 55.8361 113.92 56.8057 114.103 58.0255C114.254 58.8961 113.886 59.7209 113.674 60.5449C107.563 83.0738 101.445 105.6 95.3582 128.135C94.8906 129.69 93.3578 130.835 91.7347 130.868C86.7417 131.053 81.7447 130.872 76.7508 130.952C75.31 130.897 74.0007 129.809 73.6488 128.418C69.9191 114.741 66.2536 101.046 62.5651 87.36C61.7194 84.1677 60.7787 80.9975 60.1185 77.7617C59.2308 73.5412 58.5699 69.2693 58.2259 64.9688C57.6362 69.9959 56.8247 75.0008 55.6834 79.9313C51.4576 95.7202 47.204 111.501 42.9464 127.281C42.7348 128.108 42.5668 129.013 41.9248 129.634C40.8454 130.709 39.2326 130.981 37.7679 130.979C33.0983 130.827 28.423 131.081 23.7557 130.868C22.7445 130.835 21.7665 130.291 21.2133 129.446C20.7972 128.835 20.7076 128.086 20.5055 127.396C14.441 105.338 8.39464 83.2756 2.34197 61.2162C1.95442 59.9679 1.90211 58.6547 1.87041 57.359Z" fill="#0067AB"/>
</svg>
