<svg width="131" height="59" viewBox="0 0 131 59" fill="none" xmlns="http://www.w3.org/2000/svg">
<path fill-rule="evenodd" clip-rule="evenodd" d="M126.65 9.08231C128.952 9.08231 131 7.03593 131 4.4769C131 2.04638 128.952 0.127109 126.65 0.127109C124.219 0.127109 122.045 2.04568 122.045 4.4769C122.045 7.03593 124.219 9.08231 126.65 9.08231ZM126.65 8.44325C124.348 8.44325 122.685 6.7803 122.685 4.4776C122.685 2.43052 124.348 0.767571 126.65 0.767571C127.633 0.768129 128.577 1.15919 129.272 1.85483C129.968 2.55048 130.359 3.49381 130.36 4.4776C130.36 6.7803 128.697 8.44325 126.65 8.44325Z" fill="#234B8D"/>
<path fill-rule="evenodd" clip-rule="evenodd" d="M127.034 4.98884H125.498V7.03663H124.859V2.17489H127.034C127.802 2.17489 128.57 2.55903 128.57 3.45441C128.57 4.22128 128.314 4.4776 127.93 4.73322C128.187 4.86103 128.442 4.98884 128.442 5.6286V6.39617C128.442 6.58292 128.51 6.63324 128.597 6.6969C128.629 6.72039 128.664 6.74568 128.698 6.78031V7.03593H127.93C127.802 6.65179 127.802 5.88493 127.802 5.75641C127.802 5.37228 127.674 4.98884 127.034 4.98884ZM127.034 2.81465H125.498V4.34979H126.906C127.417 4.34979 127.929 4.22198 127.929 3.58222C127.929 2.81465 127.418 2.81465 127.034 2.81465Z" fill="#234B8D"/>
<path d="M58.8471 0H0V52.9629H6.39618V53.602C6.39618 55.1378 7.16375 56.161 9.33865 56.161C12.0255 56.161 12.7931 54.8815 12.7931 53.9861C12.7931 52.0189 10.3238 51.3606 7.55496 50.6224C4.02145 49.6803 1.20271e-05 48.6082 1.20271e-05 44.5197C1.20271e-05 41.1938 2.30272 38.3791 9.72278 38.3791C16.5024 38.3791 19.1892 40.9382 19.1892 44.0084V44.5204H12.4089C12.4089 43.3694 12.4089 42.7296 11.6413 42.2177C11.2579 41.9613 10.8738 41.7057 9.72278 41.7057C7.93202 41.7057 6.78032 42.217 6.78032 43.7528C6.78032 45.5859 9.19284 46.2129 11.9226 46.9222C15.4788 47.8464 19.5734 48.9104 19.5734 52.9636C19.5734 53.1706 19.5652 53.373 19.5489 53.5707L25.202 38.8904H33.0054L39.9136 57.1214V38.8904H51.1715C55.3934 38.8904 58.4637 41.4494 58.8472 45.5429L58.8471 0Z" fill="#234B8D"/>
<path d="M18.338 56.7151C17.5354 57.7139 16.3575 58.4687 14.8511 58.975H17.4678L18.338 56.7151Z" fill="#234B8D"/>
<path d="M3.9731 58.975C2.14311 58.3723 0.666566 57.3893 0 55.937V58.975H3.9731Z" fill="#234B8D"/>
<path d="M33.706 58.975H24.1339L25.7139 55.1371H32.2386L33.706 58.975Z" fill="#234B8D"/>
<path d="M58.8471 46.5187C58.6041 48.7843 56.8202 52.9629 51.0437 52.9629H46.4383V58.975H58.8471V46.5187Z" fill="#234B8D"/>
<path d="M61.4062 0H120.381L61.4062 58.975V0Z" fill="#234B8D"/>
<path d="M46.4383 43.6236V48.1012H49.892C52.4503 48.1012 52.4503 46.5661 52.4503 45.7985C52.4503 44.1355 51.5549 43.6236 49.2522 43.6236H46.4383Z" fill="#234B8D"/>
<path d="M29.1683 44.6475L31.471 50.7873H26.9941L29.1683 44.6475Z" fill="#234B8D"/>
</svg>
