<svg width="131" height="38" viewBox="0 0 131 38" fill="none" xmlns="http://www.w3.org/2000/svg">
<path d="M25.7199 2.4235C25.7199 3.77716 24.6283 4.84699 23.2964 4.84699C21.9646 4.84699 20.8729 3.75533 20.8729 2.4235C20.8729 1.06983 21.9646 0 23.2964 0C24.6283 0 25.7199 1.09167 25.7199 2.4235ZM25.7199 16.3313C25.7199 17.685 24.6283 18.7548 23.2964 18.7766C21.9646 18.7985 20.8729 17.685 20.8511 16.3531C20.8293 15.0213 21.9428 13.9296 23.2746 13.9078C24.6283 13.9078 25.7199 14.9776 25.7199 16.3313ZM25.7199 9.38831C25.7199 10.742 24.6283 11.8118 23.2964 11.8118C21.9646 11.8118 20.8729 10.7201 20.8729 9.38831C20.8729 8.03465 21.9646 6.96482 23.2964 6.96482C24.6283 6.94299 25.7199 8.03465 25.7199 9.38831ZM25.7199 23.2743C25.7199 24.6279 24.6283 25.6978 23.2964 25.7196C21.9428 25.7196 20.8729 24.6279 20.8511 23.2961C20.8511 21.9425 21.9428 20.8726 23.2746 20.8508C24.6283 20.8508 25.7199 21.9425 25.7199 23.2743ZM25.7199 30.2391C25.7199 31.5928 24.6283 32.6626 23.2746 32.6626C23.2528 32.6626 23.2309 32.6626 23.2091 32.6626C21.9209 32.6189 20.8948 31.5709 20.8511 30.3046C20.8074 28.9509 21.8773 27.8374 23.2091 27.7938C24.5409 27.7501 25.6763 28.8199 25.7199 30.1518V30.1736C25.7199 30.1954 25.7199 30.2173 25.7199 30.2391ZM18.7551 16.3313C18.7551 17.685 17.6634 18.7548 16.3316 18.7766C14.9998 18.7985 13.9081 17.685 13.8863 16.3531C13.8645 15.0213 14.9779 13.9296 16.3098 13.9078C17.6853 13.9078 18.7551 14.9776 18.7551 16.3313ZM18.7551 23.2743C18.7551 24.6279 17.6634 25.6978 16.3316 25.6978C14.9998 25.6978 13.9081 24.6061 13.9081 23.2743C13.9081 21.9206 14.9998 20.8508 16.3316 20.8508C17.6853 20.8508 18.7551 21.9425 18.7551 23.2743ZM18.7551 30.2391C18.7551 31.5928 17.6634 32.6626 16.3316 32.6626C14.9779 32.6626 13.9081 31.5709 13.9081 30.2391C13.9081 28.8854 14.9998 27.8156 16.3316 27.8156C17.6853 27.8156 18.7551 28.8854 18.7551 30.2391ZM11.8121 23.2743C11.8121 24.6279 10.7205 25.6978 9.38863 25.6978C8.0568 25.6978 6.96513 24.6061 6.96513 23.2743C6.96513 21.9206 8.0568 20.8508 9.38863 20.8508C10.7205 20.8508 11.8121 21.9425 11.8121 23.2743ZM11.8121 30.2391C11.8121 31.5928 10.7205 32.6626 9.38863 32.6626C8.03496 32.6626 6.96513 31.5709 6.96513 30.2391C6.96513 28.8854 8.0568 27.8156 9.38863 27.8156C10.7205 27.8156 11.8121 28.8854 11.8121 30.2391ZM4.86914 16.3313C4.86914 17.685 3.77747 18.7548 2.44564 18.7766C1.11381 18.7985 0.022149 17.685 0.000315723 16.3531C-0.0215176 15.0213 1.09198 13.9296 2.42381 13.9078C3.77747 13.9078 4.86914 14.9776 4.86914 16.3313ZM4.86914 23.2743C4.86914 24.6279 3.77747 25.6978 2.44564 25.7196C1.09198 25.7196 0.022149 24.6279 0.000315723 23.2961C0.000315723 21.9425 1.09198 20.8726 2.42381 20.8508C3.77747 20.8508 4.86914 21.9425 4.86914 23.2743ZM4.86914 30.2391C4.86914 31.5928 3.77747 32.6626 2.44564 32.6626C1.09198 32.6626 0.0221487 31.5709 0.0221487 30.2391C0.0221487 28.8854 1.11381 27.8156 2.44564 27.8156C3.77747 27.8156 4.86914 28.8854 4.86914 30.2391ZM45.8284 26.3964C45.8284 30.0208 43.0774 32.7718 39.7806 32.7718C38.1212 32.8373 36.5274 32.0731 35.5231 30.7413V37.8371H32.9031V20.3268H35.5231V22.0735C36.5056 20.7198 38.0994 19.9338 39.7806 19.9993C43.0774 19.9993 45.8284 22.7939 45.8284 26.3964ZM43.2084 26.3964C43.1865 24.2786 41.4399 22.5756 39.3221 22.6193C37.2042 22.6629 35.5012 24.3878 35.5449 26.5056C35.5667 28.6016 37.2916 30.2828 39.3876 30.2828C41.4617 30.3264 43.1865 28.6889 43.2302 26.6148C43.2084 26.5274 43.2084 26.4619 43.2084 26.3964ZM60.1947 20.3268V32.4661H57.5747V30.7194C56.5922 32.0731 54.9984 32.8591 53.3172 32.7936C50.0204 32.7936 47.2694 29.9989 47.2694 26.4183C47.2694 22.7939 50.0204 20.043 53.3172 20.043C54.9765 19.9775 56.5704 20.7416 57.5747 22.0735V20.3268H60.1947ZM57.5747 26.3964C57.5528 24.2786 55.8062 22.5756 53.6884 22.6193C51.5705 22.6629 49.8675 24.3878 49.9112 26.5056C49.933 28.6016 51.6579 30.2828 53.7539 30.2828C55.828 30.3264 57.5529 28.6889 57.5965 26.6148C57.5965 26.5274 57.5965 26.4619 57.5747 26.3964ZM71.5917 20.3268L68.0547 28.9946L64.474 20.3268H61.6138L66.7447 32.1823L64.4303 37.8589H67.094L74.4518 20.3268H71.5917Z" fill="#294258"/>
<path d="M84.2986 29.038C84.2986 31.4615 82.1808 32.7715 79.5608 32.7715C77.1373 32.7715 75.3906 31.6799 74.6046 29.9332L76.8535 28.6232C77.2465 29.7149 78.2071 30.3699 79.539 30.3699C80.6961 30.3699 81.6131 29.9769 81.6131 29.0162C81.6131 26.8547 75.085 28.0774 75.085 23.7326C75.085 21.4401 77.05 20.0209 79.539 20.0209C81.5258 20.0209 83.1851 20.9379 84.0366 22.5536L81.8315 23.7981C81.4385 22.9029 80.5215 22.3571 79.539 22.4226C78.6001 22.4226 77.7705 22.8374 77.7705 23.7107C77.7705 25.8722 84.2986 24.5404 84.2986 29.038ZM85.3685 26.3962C85.303 22.9466 88.0539 20.0864 91.5036 19.9991C91.5909 19.9991 91.6783 19.9991 91.7656 19.9991C94.0144 19.9554 96.1104 21.1562 97.1803 23.1212L94.9314 24.4312C94.3419 23.2304 93.0974 22.5099 91.7438 22.5536C89.6914 22.5099 88.0103 24.1474 87.9884 26.1997C87.9884 26.2652 87.9884 26.3089 87.9884 26.3744C87.9229 28.4267 89.5386 30.1297 91.5909 30.1952C91.6564 30.1952 91.7001 30.1952 91.7656 30.1952C93.1193 30.2389 94.3638 29.4965 94.9969 28.3175L97.2458 29.6057C96.1541 31.5925 94.0581 32.8152 91.7874 32.7715C88.3159 32.837 85.4558 30.086 85.3903 26.6364C85.3685 26.549 85.3685 26.4617 85.3685 26.3962ZM110.935 20.3266V32.4659H108.315V30.7192C107.333 32.0729 105.739 32.8589 104.058 32.7934C100.761 32.7934 98.0099 29.9987 98.0099 26.418C98.0099 22.7937 100.761 20.0427 104.058 20.0427C105.717 19.9772 107.311 20.7414 108.315 22.0732V20.3266H110.935ZM108.315 26.3962C108.293 24.2784 106.547 22.5754 104.429 22.6191C102.311 22.6409 100.608 24.3875 100.652 26.5054C100.674 28.6014 102.398 30.2825 104.494 30.2825C106.569 30.3262 108.293 28.6887 108.337 26.6145C108.315 26.5272 108.315 26.4617 108.315 26.3962ZM113.752 14.4971H116.372V32.444H113.752V14.4971ZM125.127 30.3699C126.35 30.4135 127.529 29.8459 128.249 28.8634L130.411 30.1297C129.297 31.789 127.463 32.7715 125.083 32.7715C121.066 32.7715 118.49 30.0205 118.49 26.3962C118.49 22.7937 121.088 20.0209 124.909 20.0209C128.533 20.0209 131 22.9247 131 26.4399C131 26.811 130.956 27.1604 130.913 27.5315H121.241C121.655 29.4092 123.184 30.3699 125.127 30.3699ZM128.336 25.37C128.14 23.6234 126.612 22.3134 124.865 22.3789C123.053 22.2916 121.481 23.5797 121.197 25.37H128.336Z" fill="#3880EE"/>
</svg>
