<svg width="117" height="118" viewBox="0 0 117 118" fill="none" xmlns="http://www.w3.org/2000/svg">
<path d="M94.7957 60.513C85.6223 60.513 76.8229 64.1493 70.3256 70.6253C63.8284 77.1013 60.1632 85.8887 60.1331 95.0621C60.142 95.0965 60.142 95.1325 60.1331 95.1669C60.1331 95.3366 60.0997 95.5047 60.0347 95.6615C59.9698 95.8184 59.8746 95.9608 59.7546 96.0809C59.6345 96.2009 59.492 96.2961 59.3352 96.3611C59.1784 96.426 59.0103 96.4594 58.8406 96.4594C58.497 96.4594 58.1673 96.3236 57.9235 96.0814C57.6797 95.8393 57.5416 95.5105 57.5393 95.1669C57.5394 85.9904 53.9006 77.1884 47.4209 70.6906C40.9411 64.1929 32.1492 60.5297 22.9728 60.5043H22.8767C22.5293 60.5043 22.1961 60.3663 21.9504 60.1206C21.7048 59.8749 21.5667 59.5417 21.5667 59.1943C21.5667 58.8469 21.7048 58.5137 21.9504 58.268C22.1961 58.0223 22.5293 57.8843 22.8767 57.8843C32.0638 57.8843 40.8751 54.2372 47.3746 47.7442C53.874 41.2513 57.5301 32.4437 57.5393 23.2566C57.5393 22.9092 57.6773 22.576 57.923 22.3303C58.1687 22.0847 58.5019 21.9466 58.8493 21.9466C59.1968 21.9466 59.53 22.0847 59.7756 22.3303C60.0213 22.576 60.1593 22.9092 60.1593 23.2566V23.3876C60.1807 29.9047 62.0399 36.2836 65.5233 41.7917C69.0067 47.2998 73.9731 51.7137 79.852 54.5264C85.7309 57.339 92.284 58.4365 98.7585 57.6927C105.233 56.9488 111.366 54.3939 116.454 50.3212C114.216 35.8123 106.583 22.6831 95.082 13.5597C83.5806 4.43626 69.059 -0.00883918 54.4214 1.11348C39.7838 2.23579 26.1096 8.84277 16.1335 19.613C6.15752 30.3832 0.615265 44.5225 0.615265 59.203C0.615265 73.8836 6.15752 88.0229 16.1335 98.7931C26.1096 109.563 39.7838 116.17 54.4214 117.293C69.059 118.415 83.5806 113.97 95.082 104.846C106.583 95.7229 114.216 82.5938 116.454 68.0848C110.315 63.1655 102.681 60.4882 94.8132 60.4956" fill="#FA4616"/>
</svg>
