<svg width="63" height="131" viewBox="0 0 63 131" fill="none" xmlns="http://www.w3.org/2000/svg">
<path fill-rule="evenodd" clip-rule="evenodd" d="M50.4043 0H48.3574V0.0639648L47.0142 0.383789L46.0547 0.767578L45.0952 1.2793L44.2637 1.91895L43.7519 2.3667L43.1763 3.07031L42.5366 4.02979L42.0889 5.05322L41.769 6.26855L41.7051 6.65234V8.50732L42.0249 10.5542L42.2168 11.7056V13.0488L41.9609 13.9443L41.5132 14.6479L41.1934 14.9678L40.7456 15.3516L39.8501 15.7993L38.8267 16.0552L37.7393 16.1831H36.7158L32.3022 15.8633H29.4238L27.5688 16.0552L25.7778 16.375L23.8589 16.8867L22.2598 17.4624L21.1084 17.9741L20.085 18.4858L19.1255 18.9976L17.7183 19.8931L16.6309 20.7246L15.9272 21.3003L15.0317 22.0679L13.8804 23.2192L13.3047 23.9229L12.793 24.4985L11.9614 25.6499L11.3218 26.6094L10.6182 27.8247L10.1064 28.7842L9.33887 30.5752L8.76318 32.3022L8.37939 33.8374L8.05957 35.6924L7.93164 36.9717L7.86768 38.3149V39.1465L7.9956 41.1294L8.25146 42.9204L8.63525 44.5835L9.14697 46.2466L9.78662 47.8457L10.5542 49.4448L11.3857 50.8521L11.8975 51.6196L12.729 52.771L13.4326 53.6025L13.8804 54.1143L14.4561 54.7539L15.6074 55.9053L16.311 56.481L17.2705 57.2485L18.8057 58.272L20.1489 59.1035L21.6841 59.999L23.2832 60.9585L24.0508 61.4702L24.8184 62.0459L25.458 62.6216L25.9697 63.1333L26.4175 63.8369L26.7373 64.6685L26.8013 65.0522V65.8838L26.6094 66.7793L26.2256 67.5469L25.7139 68.1865L24.8184 68.8901L23.5391 69.5938L21.9399 70.2974L19.5732 71.2568L17.8462 72.0244L16.375 72.728L14.9038 73.5596L13.7524 74.2632L12.729 74.9668L11.6416 75.7983L10.938 76.374L10.2983 76.9497L9.78662 77.3975L8.12353 79.0605L7.67578 79.5723L6.97217 80.4038L6.14062 81.4912L5.43701 82.4507L4.79736 83.4102L4.02979 84.6895L3.39014 85.8408L2.68652 87.248L2.04687 88.7832L1.40723 90.5742L0.831543 92.6211L0.447754 94.4761L0.12793 96.7148L0 98.5059V101.512L0.191895 103.815L0.511719 105.862L0.895508 107.589L1.40723 109.444L1.98291 111.107L2.68652 112.77L3.4541 114.369L4.22168 115.776L5.11719 117.184L6.01269 118.463L6.71631 119.358L7.41992 120.19L7.86768 120.702L8.44336 121.341L9.97851 122.876L10.4902 123.324L11.3218 124.028L12.6011 124.987L13.6885 125.755L15.0317 126.586L16.6309 127.482L18.3579 128.313L20.4687 129.145L22.4517 129.785L24.5625 130.296L26.7373 130.68L29.168 130.936V131H33.2617V130.936L36.0122 130.616L37.8032 130.296L40.106 129.721L42.4087 128.953L44.2637 128.186L45.8628 127.418L47.334 126.586L48.8691 125.627L50.0205 124.795L50.916 124.092L51.7476 123.388L52.3872 122.812L52.8989 122.365L54.2422 121.021L54.6899 120.51L55.4575 119.614L56.2891 118.527L57.1206 117.375L57.8882 116.16L58.6558 114.817L59.4233 113.346L60.063 111.875L60.7666 110.02L61.3423 108.101L61.79 106.182L62.1099 104.263L62.3018 102.408L62.3657 101.448V98.5059L62.1738 96.2031L61.854 94.1562L61.3423 91.8535L60.6387 89.6147L59.9351 87.8237L58.9116 85.7129L58.144 84.3057L57.2485 82.8984L56.481 81.811L55.8413 80.9795L55.2656 80.2759L54.562 79.4443L53.7944 78.6128L52.1313 76.9497L51.4277 76.374L50.5962 75.6704L49.3809 74.7749L47.9097 73.8154L46.5664 73.0479L44.8394 72.1523L42.9844 71.3208L40.6177 70.3613L39.1465 69.7217L38.123 69.21L37.2915 68.6982L36.6519 68.1226L36.1401 67.5469L35.7563 66.7793L35.5644 65.9478V65.0522L35.7563 64.2207L36.2041 63.3892L36.7798 62.6855L37.2915 62.2378L37.9311 61.7261L39.2744 60.8306L40.6816 59.999L42.5366 58.9116L43.7519 58.144L44.9673 57.3125L46.0547 56.481L47.0142 55.6494L48.2935 54.3701L48.7412 53.8584L49.6367 52.771L50.4683 51.6196L51.1719 50.5322L51.9394 49.189L52.771 47.4619L53.4106 45.7349L53.8584 44.1357L54.2422 42.2808L54.4341 40.5537L54.498 39.4023V38.251L54.3701 36.396L54.1143 34.541L53.6665 32.6221L53.0269 30.7031L52.3232 29.104L51.4277 27.377L50.4683 25.8418L49.3809 24.2427L48.6772 23.2192L47.9097 22.0039L47.3979 21.0444L47.0781 20.085L47.0142 19.8291V18.6138L47.27 17.7822L47.7178 17.0786L48.3574 16.5029L49.189 15.9912L50.2124 15.5435L51.8755 14.9038L53.3467 14.1362L54.2422 13.4966L55.0737 12.793L55.6494 12.0894L56.2251 11.1938L56.6089 10.3623L56.8647 9.53076L56.9927 8.76318V6.78027L56.7368 5.56494L56.353 4.5415L55.7773 3.4541L55.1377 2.62256L54.3061 1.79102L53.4106 1.15137L52.4512 0.639648L51.2998 0.255859L50.4043 0.0639648V0ZM32.3662 78.229H30.0635L29.168 78.293L27.6968 78.4849L26.0977 78.8047L24.7544 79.1885L23.1553 79.7642L21.5562 80.5317L20.5327 81.1074L19.3174 81.875L18.166 82.7705L17.4624 83.3462L16.0552 84.7534L15.2876 85.6489L14.7759 86.2886L14.0723 87.248L13.3047 88.4634L12.6011 89.8066L11.8975 91.3418L11.1938 93.3887L10.8101 94.9238L10.4902 96.7148L10.2983 98.6978V101.192L10.4902 103.239L10.7461 104.71L11.1299 106.31L11.6416 107.909L12.3452 109.636L13.1768 111.235L14.0083 112.578L14.7759 113.666L15.5435 114.625L15.9912 115.137L16.9507 116.096L17.5903 116.672L18.4219 117.375L19.2534 118.015L20.2769 118.719L21.748 119.55L23.1553 120.19L24.6904 120.766L26.2895 121.213L27.9526 121.533L29.6797 121.725H32.75L33.9653 121.597L35.1807 121.405L36.8437 121.021L38.5708 120.446L39.7861 119.934L40.8096 119.422L41.9609 118.783L43.3042 117.887L44.2637 117.12L44.9673 116.544L46.2466 115.265L47.0142 114.369L47.5259 113.729L48.2935 112.706L49.125 111.363L49.8926 109.892L50.5322 108.42L51.1079 106.757L51.5557 105.094L51.8755 103.303L52.0674 101.512V98.5059L51.9394 97.0986L51.6836 95.4995L51.2358 93.5806L50.5962 91.6616L49.8926 89.9985L49.3809 89.0391L48.6133 87.6958L47.8457 86.6084L47.0142 85.521L46.3745 84.8174L45.9268 84.3057L45.0952 83.5381L44.1997 82.7705L43.3042 82.0669L41.769 81.0435L40.1699 80.2119L38.8906 79.6362L37.6113 79.1885L36.0122 78.7407L34.2852 78.4209L32.3662 78.229ZM32.1103 24.6904H30.2554L29.6157 24.7544L28.4004 24.9463L26.9932 25.3301L25.7139 25.8418L24.6904 26.3535L23.731 26.9292L22.7715 27.6328L22.0679 28.2085L21.3003 28.9761L20.5327 29.8716L19.957 30.6392L19.4453 31.4067L18.8696 32.4941L18.3579 33.6455L17.9741 34.7969L17.6543 36.2041L17.4624 37.7393V39.5942L17.5903 40.7456L17.9102 42.2808L18.4858 44.0078L19.0615 45.2231L19.7012 46.3105L20.3408 47.2061L21.0444 48.1016L21.876 48.9331L22.7715 49.7007L23.7949 50.4683L24.8184 51.0439L25.8418 51.5557L27.1851 52.0674L28.7842 52.4512L30.3193 52.6431H32.0464L32.686 52.5791L34.2212 52.3232L35.7563 51.8755L37.2275 51.2358L38.7627 50.3403L39.5942 49.7007L40.2978 49.125L41.0015 48.4214L41.833 47.4619L42.4087 46.6943L43.1123 45.6069L43.8799 44.0078L44.3276 42.7285L44.7114 41.1294L44.9033 39.6582V37.6753L44.7114 36.2041L44.3916 34.7969L43.9438 33.4536L43.2402 31.9824L42.4727 30.7031L41.833 29.8716L41.2573 29.168L40.4897 28.4004L39.5303 27.5688L38.4429 26.8013L37.3555 26.1616L36.0762 25.5859L34.9248 25.2021L33.5815 24.8823L32.1103 24.6904Z" fill="#008561"/>
</svg>
