<svg width="131" height="74" viewBox="0 0 131 74" fill="none" xmlns="http://www.w3.org/2000/svg">
<path d="M31.8505 54.2609L13.5523 36.0312C10.4683 32.9473 5.39694 32.9473 2.31297 36.0312C-0.770991 39.1152 -0.770991 44.1866 2.31297 47.2706L26.2308 71.1199C29.3148 74.2039 34.3862 74.2039 37.4702 71.1199L59.9489 48.6412L48.641 37.4019L31.8505 54.2609Z" fill="#1AAD94"/>
<path d="M100.589 19.1719L65.5 54.2605L30.4113 19.1719C27.3274 16.0879 22.2559 16.0879 19.172 19.1719C16.088 22.2558 16.088 27.3272 19.172 30.4112L59.8803 71.1196C62.9643 74.2035 68.0357 74.2035 71.1197 71.1196L111.828 30.4112C114.912 27.3272 114.912 22.2558 111.828 19.1719C108.744 16.0879 103.673 16.0879 100.589 19.1719Z" fill="#F2AE20"/>
<path d="M128.687 47.2703L104.838 71.1197C101.754 74.2037 96.6823 74.2037 93.5984 71.1197L36.031 13.5523C32.947 10.4684 32.947 5.39694 36.031 2.31297C39.115 -0.770991 44.1864 -0.770991 47.2703 2.31297L99.218 54.2607L117.448 36.031C120.532 32.947 125.603 32.947 128.687 36.031C131.771 39.115 131.771 44.1864 128.687 47.2703Z" fill="#E76450"/>
<path d="M94.969 2.31297C91.885 -0.770991 86.8136 -0.770991 83.7297 2.31297L48.641 37.4017L59.8803 48.641L94.969 13.5523C98.053 10.4684 98.053 5.39694 94.969 2.31297Z" fill="#1AAD94"/>
</svg>
