<svg width="131" height="34" viewBox="0 0 131 34" fill="none" xmlns="http://www.w3.org/2000/svg">
<g clip-path="url(#clip0_112_1951)">
<path d="M43.303 26.5264C43.303 31.9404 47.9007 33.0951 47.9007 33.0951H58.4101V26.5264H43.303Z" fill="#6BBFA4"/>
<path d="M63.278 0.825195H69.7612V33.2342H63.278V0.825195Z" fill="#73BE88"/>
<path d="M98.5927 33.2342L82.0947 11.5896L82.0717 33.2342H75.5885V0.825195H81.6534L98.1749 22.4697V0.825195H104.681V33.2342H98.5932" fill="#A3CC69"/>
<path d="M124.498 7.37052C124.498 1.95646 119.9 0.801758 119.9 0.801758H109.391V7.37052H124.498Z" fill="#ECE23C"/>
<path d="M43.303 26.5262L43.2976 26.6994V0.800621H36.9019V27.3238C36.9019 30.5118 39.2014 33.0955 43.2976 33.0955L47.3409 33.0947H47.9009C47.9009 33.0947 43.3032 31.94 43.3032 26.526L43.303 26.5262ZM124.498 7.37066L124.504 7.19744V33.096H130.899V6.57259C130.899 3.38462 128.6 0.800366 124.504 0.800366L120.46 0.80164H119.9C119.9 0.80164 124.498 1.95659 124.498 7.37066ZM29.5527 5.20035L24.8824 9.76055C23.0235 7.631 20.3745 6.35785 17.0282 6.35785C11.0796 6.35785 6.75761 10.7099 6.75761 17.0296C6.75761 23.6271 11.2655 27.7943 16.9121 27.7943C22.2334 27.7943 25.3007 25.2709 26.1606 20.6412H17.8878V15.2472H32.8522C32.922 15.8721 32.9453 16.4511 32.9453 17.0762C32.9453 26.8915 26.2764 33.8133 17.0512 33.8133C8.03507 33.8131 0.041748 27.4932 0.041748 17.0296C0.041748 7.23769 7.22195 0.223145 17.2141 0.223145C22.419 0.223145 26.6482 2.05212 29.5529 5.2006L29.5527 5.20035Z" fill="#72736D"/>
</g>
<defs>
<clipPath id="clip0_112_1951">
<rect width="131" height="33.8793" fill="white"/>
</clipPath>
</defs>
</svg>
