<svg width="131" height="131" viewBox="0 0 131 131" fill="none" xmlns="http://www.w3.org/2000/svg">
<path d="M63.5199 0H67.3216L71.9154 0.316808L76.6675 0.950423L81.1028 1.90085L85.5381 3.16808L89.9734 4.75212L93.9335 6.49456L98.3688 8.87062L101.695 10.9299L104.547 12.9891L106.764 14.7316L108.982 16.6324L111.041 18.5333L113.734 21.2261L114.843 22.4934L116.585 24.5526L118.011 26.4534L119.912 29.1463L121.813 32.156L123.872 35.9577L125.773 39.9178L127.357 44.1947L128.624 48.3132L129.574 52.1149L130.366 56.867L130.842 61.9359V69.3809L130.208 75.4002L129.258 80.3108L127.99 84.9045L126.406 89.4982L124.822 93.1415L122.921 96.9432L120.862 100.428L119.278 102.804L117.06 105.814L115.318 107.873L113.892 109.457L112.784 110.724L109.774 113.734L108.507 114.843L106.447 116.585L103.279 118.961L99.9528 121.179L96.6264 123.08L92.9831 124.981L87.9141 127.04L83.4788 128.466L78.4099 129.733L73.4994 130.525L67.9553 131H62.8863L57.3422 130.525L52.4317 129.733L47.3628 128.466L41.6602 126.565L37.5417 124.822L33.2648 122.605L30.0967 120.704L27.5623 118.961L24.8694 116.902L23.127 115.476L20.9093 113.576L16.9492 109.615L15.5236 107.873L14.2563 106.447L11.8803 103.279L10.2963 100.903L8.3954 97.7352L6.49456 94.0919L5.38573 91.7158L3.80169 87.7557L2.53446 83.9541L1.26723 78.8851L0.475212 74.2914L0 68.9057V61.6191L0.633615 55.5998L1.58404 50.6892L2.69287 46.5707L4.43531 41.5018L6.01935 37.8585L7.28658 35.3241L9.18742 31.8392L11.5635 28.1959L13.4643 25.6614L15.2068 23.4438L16.9492 21.5429L18.058 20.2757L21.2261 17.1076L22.4933 15.9988L25.1862 13.7811L28.0375 11.7219L30.4135 10.1378L32.7896 8.71221L36.5913 6.65296L40.0762 5.06892L44.3531 3.48489L48.4716 2.21765L52.4317 1.26723L57.5006 0.475212L60.8271 0.158404L63.5199 0ZM54.8077 34.532V79.5187L55.2829 82.37L56.2334 85.5381L57.5006 88.0726L58.7678 89.9734L60.5103 92.0327L61.6191 93.1415L63.6784 94.7255L66.2128 96.1512L68.4305 97.1016L71.1233 97.8936L73.8162 98.3688H79.0435L81.8948 97.8936L84.5877 97.1016L87.4389 95.8343L89.6566 94.4087L91.2406 93.1415L92.8247 91.7158L94.7255 89.4982L96.4679 86.6469L97.7352 83.6372L98.5272 80.786L98.844 78.8851L99.0024 76.9843V74.925L98.5272 71.5986L97.8936 69.3809L97.1016 67.3216L95.8343 64.7872L93.9335 62.2527L92.5079 60.6687L91.399 59.5599L89.3398 57.9758L87.2805 56.7086L84.5877 55.4414L82.0532 54.6493L79.2019 54.1741H74.7666L71.4401 54.6493L69.0641 55.283L66.8464 56.2334L64.312 57.8174L62.2527 59.7183L61.6191 60.3519L61.4607 34.532H54.8077ZM34.2152 34.8489L34.6904 35.6409L36.5913 37.8585L38.4921 40.393L40.393 43.2443L42.769 47.2044L44.8283 51.006L47.6796 56.867L40.5514 49.7388L37.8585 47.6796L34.8488 45.9371L30.5719 43.8779L25.1862 41.8186L21.5429 40.8682L19.6421 40.5514H18.5333L19.4837 41.6602L20.7509 42.769L22.3349 44.1947L24.3942 46.0955L27.5623 49.2636L28.9879 51.006L30.7303 53.0653L32.156 54.6493L33.2648 55.9166L35.0073 57.3422L36.4329 58.451L38.0169 59.4015L42.6106 61.1439L45.4619 61.7775L51.006 62.7279H51.4813L51.1644 61.3023L48.4716 52.4317L46.7291 47.5212L45.4619 44.9867L44.3531 43.2443L42.6106 41.0266L40.8682 39.1258L38.8089 37.5417L35.9577 35.6409L34.532 34.8489H34.2152Z" fill="#73C41D"/>
<path d="M74.4498 60.51H78.5683L81.1028 60.9852L83.6372 61.9356L85.8549 63.3613L87.4389 64.7869L88.5477 65.8957L90.1318 68.2718L91.0822 70.4895L91.7158 72.5487L92.0326 74.2911V79.0433L91.399 81.8945L90.607 83.9538L89.3398 86.1714L88.0725 87.7555L86.1717 89.4979L83.6372 90.9236L81.578 91.7156L79.5187 92.1908L78.0931 92.3492H75.0834L72.3905 91.874L70.0145 91.082L67.48 89.6563L65.4208 87.9139L63.9951 86.3298L62.5695 84.1122L61.7775 82.3697L60.9855 79.3601L60.8271 77.776V75.5584L61.1439 73.0239L61.7775 70.6479L62.7279 68.5886L63.8367 66.6878L65.5792 64.6285L67.3216 63.2029L69.5393 61.9356L71.4401 61.1436L74.4498 60.51Z" fill="#73C41D"/>
<path d="M119.912 115.001L121.021 115.16L121.971 116.585L122.605 117.852V118.169H122.921L123.238 117.219L124.347 115.318L124.981 115.001L125.773 115.16V120.387H124.822L124.664 117.06L123.238 119.595H122.288L121.021 117.219V116.902H120.704V120.387H119.753V115.16L119.912 115.001Z" fill="#73C41D"/>
<path d="M114.684 115.001H118.803L118.961 115.16V116.11H117.377V120.387H116.268V116.11H114.684V115.001Z" fill="#73C41D"/>
</svg>
