<svg width="131" height="60" viewBox="0 0 131 60" fill="none" xmlns="http://www.w3.org/2000/svg">
<g clip-path="url(#clip0_112_2106)">
<mask id="mask0_112_2106" style="mask-type:luminance" maskUnits="userSpaceOnUse" x="-6" y="-27" width="183" height="114">
<path d="M-5.58914 86.4973H176.167V-26.9941H-5.58914V86.4973Z" fill="white"/>
</mask>
<g mask="url(#mask0_112_2106)">
<mask id="mask1_112_2106" style="mask-type:luminance" maskUnits="userSpaceOnUse" x="0" y="0" width="132" height="60">
<path d="M0 59.4585H131V-2.24113e-05H0V59.4585Z" fill="white"/>
</mask>
<g mask="url(#mask1_112_2106)">
<path d="M114.473 54.2779V52.8875H115.493C116.173 52.8875 116.356 53.0971 116.356 53.5036C116.356 53.9198 116.173 54.2552 115.373 54.2779H114.473ZM115.189 55.1263C115.482 55.1521 115.764 55.1263 115.977 55.3488C116.221 55.6069 116.221 56.0391 116.282 56.5069C116.321 56.8263 116.406 57.1713 116.468 57.4779H117.551C117.366 56.9875 117.305 56.4199 117.231 55.9037C117.144 55.3133 117.06 54.9811 116.308 54.8327V54.8068C117.035 54.6585 117.416 54.1682 117.416 53.5391C117.416 52.3101 116.381 52.0391 115.385 52.0391H113.624V57.4779H114.473V55.1263H115.189ZM115.458 59.4585C118.021 59.4585 120.074 57.394 120.074 54.8198C120.074 52.2713 118.021 50.2036 115.458 50.2036C112.885 50.2036 110.818 52.2713 110.818 54.8198C110.818 57.394 112.885 59.4585 115.458 59.4585ZM115.458 58.6489C113.342 58.6489 111.632 56.936 111.632 54.8198C111.632 52.7295 113.342 51.0165 115.458 51.0165C117.565 51.0165 119.264 52.7295 119.264 54.8198C119.264 56.936 117.565 58.6489 115.458 58.6489Z" fill="#EE2722"/>
<path d="M107.634 12.7444H100.2V20.1703H107.634C109.398 20.1703 110.818 21.6074 110.818 23.3614C110.818 25.1276 109.398 26.5469 107.634 26.5469H100.2V33.9792H107.634C113.5 33.9792 118.252 29.2228 118.252 23.3614C118.252 17.4985 113.5 12.7444 107.634 12.7444ZM65.2691 52.0391C74.1676 52.0391 81.8368 46.8277 85.4193 39.2857H94.8952V52.0391H100.2V39.2857H107.634C116.436 39.2857 123.566 32.1551 123.566 23.3614C123.566 14.5655 116.436 7.43229 107.634 7.43229H94.8952V26.5469H87.3351C85.7933 15.7444 76.5014 7.43229 65.2691 7.43229H39.1268L13.1227 52.0391H19.3261L26.7584 39.2857H53.4818V52.0391H65.2691ZM131 23.3614C131 36.2616 120.537 46.718 107.634 46.718V59.4585H87.4643V49.5197C82.0078 55.6198 74.0933 59.4585 65.2691 59.4585H46.048V46.718H31.0253L23.593 59.4585H0L34.6794 -2.24113e-05H65.2691C74.0933 -2.24113e-05 82.0078 3.84928 87.4643 9.95005V-2.24113e-05H107.634C120.537 -2.24113e-05 131 10.4647 131 23.3614ZM46.048 12.7444V26.5469H34.1907L29.8599 33.9792H53.4818V12.7444H46.048ZM82.2627 29.7292C82.2627 39.1131 74.6514 46.718 65.2691 46.718H58.7898V39.2857H65.2691C70.5514 39.2857 74.8318 35.0131 74.8318 29.7292C74.8318 24.4566 70.5514 20.1703 65.2691 20.1703H58.7898V12.7444H65.2691C74.6514 12.7444 82.2627 20.3493 82.2627 29.7292Z" fill="#EE2722"/>
<path d="M107.634 12.7444H100.2V20.1703H107.634C109.398 20.1703 110.818 21.6074 110.818 23.3614C110.818 25.1276 109.398 26.5469 107.634 26.5469H100.2V33.9792H107.634C113.5 33.9792 118.252 29.2228 118.252 23.3614C118.252 17.4985 113.5 12.7444 107.634 12.7444ZM65.2691 52.0391C74.1676 52.0391 81.8368 46.8277 85.4193 39.2857H94.8952V52.0391H100.2V39.2857H107.634C116.436 39.2857 123.566 32.1551 123.566 23.3614C123.566 14.5655 116.436 7.43229 107.634 7.43229H94.8952V26.5469H87.3351C85.7933 15.7444 76.5014 7.43229 65.2691 7.43229H39.1268L13.1227 52.0391H19.3261L26.7584 39.2857H53.4818V52.0391H65.2691ZM131 23.3614C131 36.2616 120.537 46.718 107.634 46.718V59.4585H87.4643V49.5197C82.0078 55.6198 74.0933 59.4585 65.2691 59.4585H46.048V46.718H31.0253L23.593 59.4585H0L34.6794 -2.24113e-05H65.2691C74.0933 -2.24113e-05 82.0078 3.84928 87.4643 9.95005V-2.24113e-05H107.634C120.537 -2.24113e-05 131 10.4647 131 23.3614ZM46.048 12.7444V26.5469H34.1907L29.8599 33.9792H53.4818V12.7444H46.048ZM82.2627 29.7292C82.2627 39.1131 74.6514 46.718 65.2691 46.718H58.7898V39.2857H65.2691C70.5514 39.2857 74.8318 35.0131 74.8318 29.7292C74.8318 24.4566 70.5514 20.1703 65.2691 20.1703H58.7898V12.7444H65.2691C74.6514 12.7444 82.2627 20.3493 82.2627 29.7292Z" fill="#EE2722"/>
<path d="M107.634 12.7444H100.2V20.1703H107.634C109.398 20.1703 110.818 21.6074 110.818 23.3614C110.818 25.1276 109.398 26.5469 107.634 26.5469H100.2V33.9792H107.634C113.5 33.9792 118.252 29.2228 118.252 23.3614C118.252 17.4985 113.5 12.7444 107.634 12.7444ZM65.2691 52.0391C74.1676 52.0391 81.8368 46.8277 85.4193 39.2857H94.8952V52.0391H100.2V39.2857H107.634C116.436 39.2857 123.566 32.1551 123.566 23.3614C123.566 14.5655 116.436 7.43229 107.634 7.43229H94.8952V26.5469H87.3351C85.7933 15.7444 76.5014 7.43229 65.2691 7.43229H39.1268L13.1227 52.0391H19.3261L26.7584 39.2857H53.4818V52.0391H65.2691ZM131 23.3614C131 36.2616 120.537 46.718 107.634 46.718V59.4585H87.4643V49.5197C82.0078 55.6198 74.0933 59.4585 65.2691 59.4585H46.048V46.718H31.0253L23.593 59.4585H0L34.6794 -2.24113e-05H65.2691C74.0933 -2.24113e-05 82.0078 3.84928 87.4643 9.95005V-2.24113e-05H107.634C120.537 -2.24113e-05 131 10.4647 131 23.3614ZM46.048 12.7444V26.5469H34.1907L29.8599 33.9792H53.4818V12.7444H46.048ZM82.2627 29.7292C82.2627 39.1131 74.6514 46.718 65.2691 46.718H58.7898V39.2857H65.2691C70.5514 39.2857 74.8318 35.0131 74.8318 29.7292C74.8318 24.4566 70.5514 20.1703 65.2691 20.1703H58.7898V12.7444H65.2691C74.6514 12.7444 82.2627 20.3493 82.2627 29.7292Z" fill="#EE2722"/>
</g>
</g>
</g>
<defs>
<clipPath id="clip0_112_2106">
<rect width="131" height="59.4585" fill="white"/>
</clipPath>
</defs>
</svg>
