<svg width="131" height="30" viewBox="0 0 131 30" fill="none" xmlns="http://www.w3.org/2000/svg">
<path d="M92.7046 2.75098C91.1544 2.81648 87.2026 3.40597 82.8142 6.13512C77.9672 9.12626 71.5046 15.3924 68.7318 28.4049L68.6008 28.8634H68.7973C75.1289 4.82512 92.5736 3.79897 94.6259 3.73347L92.7046 2.75098Z" fill="#009887"/>
<path d="M46.5929 20.7195C46.5929 15.8289 46.5929 15.2394 46.3964 14.9992V14.9337C46.7894 14.8682 47.6191 14.8027 48.2741 14.8027C48.8636 14.8027 49.5622 14.8027 50.1517 14.8682C50.9814 14.9337 51.9639 15.1302 52.6625 15.5232C53.9507 16.1782 54.9332 17.4882 54.9332 19.3659C54.9332 20.2829 54.7367 21.0689 54.4092 21.6365C54.0162 22.357 53.514 22.881 52.9245 23.274C52.4005 23.536 51.8329 23.798 51.1779 23.929C50.5229 24.1255 49.8242 24.1255 49.1037 24.1255V24.6495C49.1037 27.9026 49.1037 28.6231 49.3657 28.7541V28.8851H47.7501H46.3964V28.7541C46.5929 28.5576 46.5929 27.9026 46.5929 22.7063V20.7195ZM52.335 19.344C52.335 18.4925 51.942 17.8375 51.2434 17.4664C50.8504 17.2044 50.3482 17.0734 49.7587 17.0734C49.5622 17.0734 49.3657 17.0734 49.1037 17.1389V21.8985C49.2347 21.8985 49.5622 21.8985 49.7587 21.833C50.2827 21.833 50.7194 21.702 51.1124 21.5055C51.4399 21.3745 51.7674 21.1125 51.9421 20.7195C52.204 20.392 52.335 19.9335 52.335 19.4095V19.344Z" fill="#2A57AE"/>
<path d="M56.0904 20.654C56.0904 15.8288 56.0904 15.1738 55.8939 14.9992V14.8682H57.4441H58.9942V14.9992C58.7322 15.1957 58.7322 15.8507 58.7322 20.654V22.6189V26.3961C58.7322 26.5271 58.7977 26.5926 58.9287 26.5926H61.767C62.2255 26.5926 62.422 26.5926 62.6622 26.5271C62.8587 26.4616 63.0552 26.3961 63.1207 26.3306H63.2517C63.2517 27.4441 63.2517 27.9026 63.2517 28.8632H59.7584H55.8721V28.7322C56.0686 28.5357 56.0686 27.8807 56.0686 22.6844V20.654H56.0904Z" fill="#2A57AE"/>
<path d="M77.596 19.344C78.5567 13.6892 78.6877 12.8378 78.4912 12.7068V12.5758C78.8187 12.5758 79.3864 12.5758 79.9759 12.5103C80.4998 12.5103 81.395 12.5103 81.9845 12.5103C83.1417 12.5103 84.1242 12.5758 85.0193 12.9033C86.242 13.2963 87.7921 14.5407 87.3555 17.2699C87.29 17.6629 87.159 17.9904 87.0935 18.2524C86.5695 19.6934 85.6743 20.5885 84.9538 21.047C84.4953 21.3745 83.9932 21.6365 83.6002 21.7675V21.833C83.8622 22.226 84.1242 22.75 86.504 27.1166C86.897 27.7716 87.3555 28.6231 87.552 28.7541V28.8851H85.7398H84.4517C84.2552 28.8851 83.9932 28.8196 83.7967 28.8196C82.9015 26.9856 81.8535 24.846 80.6308 22.4443H80.0414L79.9104 23.2958C79.1462 27.7935 79.0152 28.645 79.1899 28.776V28.907H77.5087H75.7621V28.776C76.0241 28.645 76.2206 27.7935 77.1812 21.6802L77.596 19.344ZM84.2552 17.4664C84.5172 15.9599 83.6657 15.0647 82.1155 15.0647C81.7225 15.0647 81.4605 15.0647 81.2858 15.1302L80.4562 20.0864C80.5872 20.0864 80.8492 20.0864 81.0457 20.0864C81.6352 20.0864 82.2028 19.9554 82.7268 19.6934C83.2727 19.344 84.0587 18.6454 84.2552 17.4664Z" fill="#009887"/>
<path d="M104.931 14.5411C104.342 14.4756 103.774 14.4756 103.054 14.4756C98.2066 14.4756 94.3421 17.4012 93.6216 21.8334C92.8574 26.3965 95.8268 29.2566 100.15 29.2566C101.831 29.2566 103.119 28.9946 104.167 28.6671C104.233 28.2741 104.298 27.5537 104.429 26.8332L104.757 24.9992C105.15 22.5975 105.281 22.008 105.477 21.877L105.543 21.6805H105.477H105.412H105.084H103.075H102.617H100.674L100.215 24.2787H100.346C100.608 24.0822 101.045 24.0167 101.634 24.0167H102.224L102.027 25.0647L101.765 26.6367C101.372 26.7022 100.914 26.7677 100.477 26.7677C97.7699 26.7677 96.0888 24.8245 96.6128 21.746C97.1368 18.6894 99.6476 16.8554 102.813 16.8554C103.665 16.8554 104.364 16.9209 104.822 17.1174C105.215 17.1829 105.521 17.3139 105.652 17.5759H105.783C106.045 16.3314 106.11 15.6764 106.307 14.7812C105.826 14.7376 105.368 14.6066 104.931 14.5411Z" fill="#009887"/>
<path d="M92.2024 22.6846C91.3073 27.9027 91.2199 28.5359 91.4383 28.7324V28.8634H89.8881H88.2725V28.7324C88.5345 28.5359 88.6655 27.8809 89.4951 22.6846L89.8881 20.6759C90.6523 15.8508 90.7833 15.1958 90.5868 15.0211V14.8901H92.1369H93.7526L93.6871 15.0211C93.4251 15.2176 93.3596 15.8726 92.5299 20.6759L92.2024 22.6846Z" fill="#009887"/>
<path d="M117.9 22.6846C117.005 27.9027 116.874 28.6669 117.136 28.7324L117.07 28.8634H115.586H113.905L113.97 28.7324C114.232 28.6669 114.363 27.8809 115.062 23.5142L115.193 22.9247H109.254L109.123 23.5142C108.424 27.8809 108.293 28.6669 108.555 28.7324L108.49 28.8634H106.94H105.39V28.7324C105.652 28.6669 105.783 27.8809 106.612 22.6846L107.005 20.6759C107.769 15.8508 107.9 15.0866 107.704 15.0211V14.8901H109.32H110.804V15.0211C110.542 15.0866 110.411 15.8726 109.713 20.1083L109.647 20.6323H115.586L115.651 20.1083C116.372 15.8726 116.503 15.0866 116.306 15.0211V14.8901H117.922H119.407V15.0211C119.145 15.0866 119.014 15.8726 118.249 20.6759L117.9 22.6846Z" fill="#009887"/>
<path d="M124.101 17.0733H121.568C121 17.0733 120.542 17.1388 120.28 17.4008H120.149L120.607 14.8682H124.865H126.677H131L130.607 17.4008H130.476C130.28 17.1388 129.908 17.0733 129.319 17.0733H126.743L125.847 22.6844C124.952 27.9026 124.821 28.7322 125.083 28.7322V28.8632H123.533H121.917V28.7322C122.179 28.6012 122.31 27.8807 123.206 22.6844L124.101 17.0733Z" fill="#009887"/>
<path d="M29.0172 21.4403C29.0172 25.6759 25.8514 28.9946 21.463 28.9946C17.271 28.9946 13.9742 25.7414 13.9742 21.5713C13.9742 17.2702 17.271 14.0825 21.6595 14.0825C25.9169 14.0825 29.0172 17.2047 29.0172 21.4403ZM26.1134 21.5058C26.1134 18.7767 24.1703 16.5497 21.5285 16.5497C18.8211 16.5497 16.878 18.6893 16.878 21.5058C16.878 24.3004 18.8211 26.4619 21.5285 26.4619C24.3013 26.4619 26.1134 24.3004 26.1134 21.5058Z" fill="#2A57AE"/>
<path d="M31.3534 14.2134H31.6809C36.2004 22.0952 36.7244 23.0121 37.2265 24.1693H37.292C37.816 22.9903 38.3837 22.0952 42.9686 14.2134H43.3616L44.3878 22.4226C45.1083 27.9028 45.2175 28.6669 45.4795 28.7324V28.8634H43.8638H42.1826V28.7324C42.4446 28.6669 42.3136 27.7499 41.9206 24.4968C41.7896 23.1213 41.6586 22.0296 41.5931 20.9162H41.5276C41.0037 22.2261 40.567 22.9903 39.912 24.1693C39.388 25.1518 38.5583 26.6365 37.3357 28.6014H37.0082C35.7855 26.6583 34.8685 25.0863 34.3664 24.1038C33.7769 22.9903 33.2747 22.0296 32.8162 20.9162H32.7507C32.6852 22.0296 32.5542 23.1213 32.4232 24.5623C32.0302 27.7499 31.9647 28.6669 32.1612 28.7324V28.8634H30.5456H29.0609V28.7324C29.3229 28.6669 29.4539 27.8809 30.1526 22.4226L31.3534 14.2134Z" fill="#2A57AE"/>
<path d="M87.421 0C74.2992 2.33615 68.2296 19.7372 68.2296 19.7372C67.269 13.6239 63.1207 11.9864 63.1207 11.9864L60.0858 15.5015C63.3172 15.829 66.5485 18.8202 66.4175 23.7108L65.6533 28.8634H67.9676C71.9631 5.67662 87.7266 2.22698 90.827 1.76849L87.421 0Z" fill="#2A57AE"/>
<path d="M7.57709 29.0598C7.57709 29.0598 7.64259 29.0598 7.70809 29.0598C7.77359 29.0598 7.83909 29.0598 7.90458 29.1253C7.97008 29.1253 8.10108 29.1253 8.16658 29.1253C10.6774 29.1908 12.686 28.2738 13.9742 27.6843L13.2537 24.6932L13.1227 24.7587C13.1227 24.7587 13.0572 24.8897 12.7952 25.0862C10.4809 26.3962 9.10541 26.1342 7.94825 26.0032C5.30644 25.5447 3.29779 23.2085 3.36329 20.3265C3.42879 19.8025 3.49428 19.2785 3.62528 18.7545C3.69078 18.689 3.75628 18.558 3.75628 18.4925C3.75628 18.427 3.82178 18.3615 3.82178 18.3615C3.82178 18.2305 3.88728 18.0995 3.95278 17.9685C3.95278 17.9685 4.01828 17.903 4.01828 17.8375C4.08378 17.772 4.08378 17.7065 4.14928 17.641C4.47678 16.9861 4.93527 16.4621 5.43744 16.0036L5.56844 15.9381C7.94825 14.1696 10.6119 14.8901 11.5071 15.2176C12.1621 15.4141 12.8607 15.8726 13.0572 16.2001H13.1882L14.0179 13.1434C13.1882 12.6849 11.1796 11.8334 8.84341 11.7679C3.79995 11.7024 0.0664777 15.4796 0.000978158 20.2392C-0.0645213 24.8023 3.16679 28.5795 7.48975 29.038H7.57709V29.0598Z" fill="#2A57AE"/>
<path d="M127.398 27.2258H126.874V27.0293H128.162V27.2258H127.66V28.7978H127.398V27.2258Z" fill="#009887"/>
<path d="M129.843 28.0118C129.843 27.7498 129.843 27.4223 129.843 27.2258C129.777 27.4223 129.712 27.6843 129.581 27.8808L129.253 28.7323H129.122L128.795 27.9463C128.729 27.6843 128.664 27.4223 128.598 27.2258C128.598 27.4223 128.598 27.7498 128.598 28.0118L128.555 28.7978H128.358L128.424 27.0293H128.751L129.079 27.8808C129.144 28.0773 129.21 28.2738 129.21 28.4703C129.275 28.2738 129.341 28.0773 129.406 27.8808L129.734 27.0293H130.061L130.127 28.7978H129.93L129.843 28.0118Z" fill="#009887"/>
</svg>
